<?xml version="1.0" encoding="UTF-8"?>
<svg version="1.1" xmlns="http://www.w3.org/2000/svg" width="500" height="500">
<path d="M0 0 C2.44657165 2.16612 4.81063478 4.38943538 7.15234375 6.66796875 C7.7865625 7.25191406 8.42078125 7.83585937 9.07421875 8.4375 C25.96984579 24.39863439 33.75596496 47.7113886 35.33984375 70.34765625 C35.91234864 92.17440526 27.70459683 117.0137026 12.77734375 133.23046875 C10.93590258 135.07705361 9.06109004 136.89104195 7.15234375 138.66796875 C5.78335938 139.97121094 5.78335938 139.97121094 4.38671875 141.30078125 C-14.50780147 158.18195095 -39.59862977 165.94435904 -64.71484375 164.82470703 C-84.83749326 163.34591342 -103.81007637 154.91415908 -118.84765625 141.66796875 C-119.6778125 140.98089844 -120.50796875 140.29382813 -121.36328125 139.5859375 C-137.8236513 125.57442618 -147.6172829 105.12094125 -149.84765625 83.66796875 C-150.9825977 61.85715784 -148.73228625 39.03813429 -135.84765625 20.66796875 C-135.3475 19.94609375 -134.84734375 19.22421875 -134.33203125 18.48046875 C-119.81745585 -1.24808034 -99.32781134 -14.54416557 -75.109375 -19.0234375 C-47.78035716 -23.01531651 -21.56075832 -17.6567527 0 0 Z " fill="#FAFAFA" transform="translate(310.84765625,191.33203125)"/>
<path d="M0 0 C0 0.66 0 1.32 0 2 C-2.87532742 4.09114721 -5.22086085 5.05615106 -8.6875 5.9375 C-12.08229802 6.65036906 -12.08229802 6.65036906 -13.4375 9.125 C-13.623125 9.74375 -13.80875 10.3625 -14 11 C-14.66 11 -15.32 11 -16 11 C-16.103125 11.721875 -16.20625 12.44375 -16.3125 13.1875 C-17.06351998 16.25985448 -18.35134849 18.32094129 -20 21 C-21.12135466 24.32471027 -21.01108915 27.24349832 -20.81640625 30.7265625 C-20.77708984 31.84160156 -20.73777344 32.95664063 -20.69726562 34.10546875 C-20.60827142 36.4296363 -20.49160527 38.75292874 -20.34570312 41.07421875 C-20.13326204 48.94809894 -21.53512174 52.96826706 -26.86401367 58.78417969 C-27.56888916 59.51540039 -28.27376465 60.24662109 -29 61 C-30.05431479 62.27530314 -31.09508463 63.56201898 -32.1171875 64.86328125 C-32.57867187 65.44013672 -33.04015625 66.01699219 -33.515625 66.61132812 C-33.96421875 67.17271484 -34.4128125 67.73410156 -34.875 68.3125 C-35.58269531 69.18358398 -35.58269531 69.18358398 -36.3046875 70.07226562 C-38.82869817 73.24520518 -40.73793638 76.13402352 -42 80 C-40.68 80 -39.36 80 -38 80 C-37.72800781 79.27683594 -37.45601562 78.55367188 -37.17578125 77.80859375 C-34.25519515 70.83217713 -30.02659226 64.61795605 -25 59 C-23.515 59.495 -23.515 59.495 -22 60 C-21.26171875 62.22265625 -21.26171875 62.22265625 -20.6875 65.0625 C-18.70167279 73.07858785 -14.10338846 78.53907348 -8 84 C-5.83379456 85.29519995 -5.83379456 85.29519995 -4 86 C-4 86.66 -4 87.32 -4 88 C4.25 88 12.5 88 21 88 C21 91 21 91 19.625 92.5 C19.08875 92.995 18.5525 93.49 18 94 C17.34 94.99 16.68 95.98 16 97 C15.34 97 14.68 97 14 97 C14 97.66 14 98.32 14 99 C13.34 99 12.68 99 12 99 C12 99.66 12 100.32 12 101 C10.3203125 102.5078125 10.3203125 102.5078125 8.125 104.125 C7.40570313 104.66382813 6.68640625 105.20265625 5.9453125 105.7578125 C4 107 4 107 2 107 C2 107.66 2 108.32 2 109 C-0.28533038 110.13961808 -2.57703178 111.26136925 -4.875 112.375 C-5.82246094 112.85066406 -5.82246094 112.85066406 -6.7890625 113.3359375 C-20.38152604 119.86032 -39.72668542 120.94089595 -53.98510742 116.1027832 C-60.52227384 113.53876918 -67.50356156 110.51450789 -72.51171875 105.48046875 C-74.13492413 103.77027531 -74.13492413 103.77027531 -77 102 C-77 101.01 -77 100.02 -77 99 C-78.485 98.505 -78.485 98.505 -80 98 C-80 97.34 -80 96.68 -80 96 C-80.99 95.67 -81.98 95.34 -83 95 C-95.57649905 80.04416329 -96.98357071 61.72126575 -96 43 C-95.31009358 35.24411655 -91.70422691 28.74866785 -88 22 C-87.48308594 21.05640625 -86.96617187 20.1128125 -86.43359375 19.140625 C-85.72396484 18.08101562 -85.72396484 18.08101562 -85 17 C-84.34 17 -83.68 17 -83 17 C-82.34 15.35 -81.68 13.7 -81 12 C-80.34 12 -79.68 12 -79 12 C-78.7525 11.401875 -78.505 10.80375 -78.25 10.1875 C-76.81927475 7.68373081 -75.4308418 6.51927612 -73 5 C-72.34 5 -71.68 5 -71 5 C-70.67 4.01 -70.34 3.02 -70 2 C-50.23325496 -12.14604846 -20.35408762 -13.56939175 0 0 Z " fill="#FCFCFB" transform="translate(287,209)"/>
<path d="M0 0 C0.76248047 0.04382813 1.52496094 0.08765625 2.31054688 0.1328125 C7.91693579 0.4897179 7.91693579 0.4897179 10.1875 1.625 C11.5796875 1.74875 11.5796875 1.74875 13 1.875 C21.76001248 3.0478887 32.83406278 7.27156278 39.1875 13.625 C39.27487645 15.47869611 39.29448153 17.33567541 39.28515625 19.19140625 C39.28032227 20.8784668 39.28032227 20.8784668 39.27539062 22.59960938 C39.26282227 24.37561523 39.26282227 24.37561523 39.25 26.1875 C39.24548828 27.37537109 39.24097656 28.56324219 39.23632812 29.78710938 C39.22449675 32.73312226 39.20801287 35.67903681 39.1875 38.625 C41.12302734 38.60759766 41.12302734 38.60759766 43.09765625 38.58984375 C44.81510271 38.5804588 46.53255075 38.57135936 48.25 38.5625 C49.09755859 38.55412109 49.94511719 38.54574219 50.81835938 38.53710938 C55.7236722 38.51816994 60.35194755 38.79173655 65.1875 39.625 C65.1875 40.945 65.1875 42.265 65.1875 43.625 C66.5075 43.625 67.8275 43.625 69.1875 43.625 C68.2691124 48.34813624 68.2691124 48.34813624 67.66552734 50.39575195 C67.04245489 53.30140803 67.02247247 56.07166685 66.9765625 59.04296875 C66.94820312 60.29787109 66.91984375 61.55277344 66.890625 62.84570312 C66.838929 65.47056739 66.79454576 68.09558683 66.7578125 70.72070312 C66.58098294 77.93019177 65.96045527 83.96031788 63.1875 90.625 C62.74420007 91.93555243 62.3059498 93.24783473 61.875 94.5625 C54.98653099 112.38114177 41.49243805 124.76804459 24.625 133 C14.97993817 137.13359793 6.39567916 138.87061352 -4.0625 138.9375 C-4.90240479 138.94313965 -5.74230957 138.9487793 -6.60766602 138.95458984 C-11.95412381 138.89224356 -16.70814417 138.20368677 -21.8125 136.625 C-22.77518799 136.32928101 -22.77518799 136.32928101 -23.75732422 136.02758789 C-43.23260586 129.74311496 -56.62887588 117.41773712 -67.125 99.9375 C-75.90267151 82.70725593 -75.67291805 63.55179362 -70.12109375 45.359375 C-65.05980928 30.66718923 -54.5037963 18.37702754 -41.8125 9.625 C-39.81846442 8.94069997 -37.81906096 8.27165104 -35.8125 7.625 C-35.3369165 7.13459229 -34.86133301 6.64418457 -34.37133789 6.13891602 C-31.71750822 3.56156319 -28.07834935 3.25124986 -24.5625 2.5 C-23.82386719 2.33113281 -23.08523437 2.16226563 -22.32421875 1.98828125 C-14.75047015 0.29186842 -7.74548403 -0.53741433 0 0 Z M-40.8125 16.625 C-40.8125 17.285 -40.8125 17.945 -40.8125 18.625 C-41.9571875 19.0271875 -41.9571875 19.0271875 -43.125 19.4375 C-45.70238618 20.57634505 -47.08204864 21.43916671 -48.8125 23.625 C-48.8125 24.285 -48.8125 24.945 -48.8125 25.625 C-49.4725 25.625 -50.1325 25.625 -50.8125 25.625 C-51.8025 28.1 -51.8025 28.1 -52.8125 30.625 C-53.4725 30.625 -54.1325 30.625 -54.8125 30.625 C-66.33876361 46.10312542 -67.12061653 63.24339548 -65.3125 81.75 C-63.71926037 91.64424904 -58.61364193 102.21203986 -51.8125 109.625 C-51.1525 109.625 -50.4925 109.625 -49.8125 109.625 C-49.4825 110.615 -49.1525 111.605 -48.8125 112.625 C-48.1525 112.625 -47.4925 112.625 -46.8125 112.625 C-46.73 113.24375 -46.6475 113.8625 -46.5625 114.5 C-46.02652157 116.76890805 -46.02652157 116.76890805 -44 117.625 C-43.278125 117.955 -42.55625 118.285 -41.8125 118.625 C-41.255625 119.223125 -40.69875 119.82125 -40.125 120.4375 C-36.73117932 123.64787091 -33.00294135 125.603128 -28.8125 127.625 C-28.01714844 128.02332031 -27.22179687 128.42164063 -26.40234375 128.83203125 C-13.36604284 134.26542323 6.10740253 133.80768013 19.1875 128.625 C23.58916536 126.74676494 27.90324903 124.7602154 32.1875 122.625 C32.1875 121.965 32.1875 121.305 32.1875 120.625 C32.909375 120.3775 33.63125 120.13 34.375 119.875 C37.46356582 118.50230408 39.69761418 116.90146704 42.1875 114.625 C42.1875 113.965 42.1875 113.305 42.1875 112.625 C42.8475 112.625 43.5075 112.625 44.1875 112.625 C44.1875 111.965 44.1875 111.305 44.1875 110.625 C45.1775 110.295 46.1675 109.965 47.1875 109.625 C47.88687532 108.30852881 48.55479133 106.97477849 49.1875 105.625 C49.8475 105.295 50.5075 104.965 51.1875 104.625 C51.1875 103.635 51.1875 102.645 51.1875 101.625 C42.9375 101.625 34.6875 101.625 26.1875 101.625 C25.8575 100.635 25.5275 99.645 25.1875 98.625 C23.7025 98.13 23.7025 98.13 22.1875 97.625 C14.3341073 90.62062273 10.34031466 83.89808048 8.1875 73.625 C4.33309501 73.16912397 4.33309501 73.16912397 2.6953125 75.0234375 C2.01082031 76.00183594 2.01082031 76.00183594 1.3125 77 C0.55453125 78.0828125 0.55453125 78.0828125 -0.21875 79.1875 C-5.35171602 85.94210541 -5.35171602 85.94210541 -7.8125 93.625 C-9.1325 93.625 -10.4525 93.625 -11.8125 93.625 C-10.49480406 89.89480602 -8.90283705 87.21985338 -6.375 84.1875 C-5.67503906 83.30191406 -4.97507813 82.41632813 -4.25390625 81.50390625 C-2.49180409 79.42603538 -0.80178467 77.63360782 1.16015625 75.77734375 C7.73199919 69.15594577 9.75455873 64.14689524 9.796875 54.70507812 C9.69093159 51.29786237 9.49248276 47.90597233 9.28125 44.50390625 C8.94307996 37.79228777 10.46710241 34.20559638 14.1875 28.625 C14.1875 27.305 14.1875 25.985 14.1875 24.625 C14.8475 24.625 15.5075 24.625 16.1875 24.625 C16.42597656 23.99851563 16.66445313 23.37203125 16.91015625 22.7265625 C18.53533834 20.05271551 19.65319282 19.81004925 22.625 19 C25.70628815 18.13703627 27.45781903 17.44478731 30.1875 15.625 C30.1875 14.965 30.1875 14.305 30.1875 13.625 C9.13536468 0.90600158 -21.07079165 0.4125356 -40.8125 16.625 Z " fill="#D0D1CF" transform="translate(256.8125,195.375)"/>
<path d="M0 0 C0 8.25 0 16.5 0 25 C5.9376702 24.96071832 5.9376702 24.96071832 11.87524414 24.90991211 C16.69637416 24.89394299 21.24765246 25.18107444 26 26 C24.34695918 31.63536644 22.56196789 36.25070948 19 41 C18.4946875 41.72316406 17.989375 42.44632813 17.46875 43.19140625 C13.27693525 48.97420523 8.92117915 53.88116782 1.71484375 55.51953125 C-0.18031714 55.77021391 -2.09106872 55.89773582 -4 56 C-3.59910156 56.40347656 -3.19820313 56.80695313 -2.78515625 57.22265625 C1.41869568 61.71248451 4.75429358 66.51225343 7.9375 71.75 C8.3389624 72.39976807 8.7404248 73.04953613 9.15405273 73.71899414 C11.20345642 77.1679254 12 78.89413393 12 83 C6.50068342 83.90794086 1.13329635 84.24612832 -4.4375 84.3125 C-5.24509766 84.34150391 -6.05269531 84.37050781 -6.88476562 84.40039062 C-13.70259655 84.47181029 -18.71298961 82.71226791 -23.98828125 78.359375 C-28.55542267 72.80874886 -30.88913189 67.10955589 -32 60 C-32.66 60 -33.32 60 -34 60 C-38.83536575 65.08985869 -42.04384796 71.50100739 -45.2890625 77.65625 C-45.85367188 78.4296875 -46.41828125 79.203125 -47 80 C-48.32 80 -49.64 80 -51 80 C-50.46469282 75.88392185 -49.29723677 73.70919513 -46.625 70.5625 C-45.56152344 69.23412109 -45.56152344 69.23412109 -44.4765625 67.87890625 C-42.70084017 65.81469906 -40.98560634 64.00941887 -39.0234375 62.15234375 C-32.45644633 55.52839506 -30.43293694 50.52093015 -30.390625 41.08007812 C-30.49656841 37.67286237 -30.69501724 34.28097233 -30.90625 30.87890625 C-31.2282652 23.94361269 -29.81635231 20.53407904 -25.74609375 14.85546875 C-22.74000943 11.72965419 -19.74035484 9.55721873 -16.0625 7.3125 C-15.46759766 6.93544922 -14.87269531 6.55839844 -14.25976562 6.16992188 C-4.40727258 0 -4.40727258 0 0 0 Z " fill="#729F33" transform="translate(296,209)"/>
<path d="M0 0 C2.44657165 2.16612 4.81063478 4.38943538 7.15234375 6.66796875 C7.7865625 7.25191406 8.42078125 7.83585937 9.07421875 8.4375 C25.96984579 24.39863439 33.75596496 47.7113886 35.33984375 70.34765625 C35.91234864 92.17440526 27.70459683 117.0137026 12.77734375 133.23046875 C10.93590258 135.07705361 9.06109004 136.89104195 7.15234375 138.66796875 C5.78335938 139.97121094 5.78335938 139.97121094 4.38671875 141.30078125 C-14.50780147 158.18195095 -39.59862977 165.94435904 -64.71484375 164.82470703 C-76.71163903 163.94307441 -89.30673187 160.52403785 -99.84765625 154.66796875 C-95.35423216 153.21508672 -92.28184173 154.79307705 -88.09765625 156.54296875 C-77.96960436 160.75978123 -68.73142747 160.80517257 -57.84765625 160.73046875 C-56.59597656 160.72595703 -55.34429687 160.72144531 -54.0546875 160.71679688 C-50.98562684 160.7050829 -47.91666718 160.68867948 -44.84765625 160.66796875 C-47.15765625 160.33796875 -49.46765625 160.00796875 -51.84765625 159.66796875 C-51.84765625 159.00796875 -51.84765625 158.34796875 -51.84765625 157.66796875 C-49.14981295 156.3190471 -46.66087754 156.2570333 -43.66015625 155.91796875 C-22.62416047 152.95273135 -3.64012136 142.5692857 10.17578125 126.30859375 C16.71610664 117.57092584 22.13142477 108.19541369 25.15234375 97.66796875 C25.59707031 96.30285156 25.59707031 96.30285156 26.05078125 94.91015625 C31.95188555 74.17508334 28.61467119 51.16070056 18.32519531 32.49243164 C17.38086709 30.80382491 16.41357633 29.12812161 15.4453125 27.453125 C14.15234375 24.66796875 14.15234375 24.66796875 15.15234375 21.66796875 C16.63208725 24.29264509 18.11116318 26.91769368 19.58984375 29.54296875 C20.01072266 30.28933594 20.43160156 31.03570312 20.86523438 31.8046875 C21.26806641 32.52011719 21.67089844 33.23554688 22.0859375 33.97265625 C22.45775146 34.63249512 22.82956543 35.29233398 23.21264648 35.97216797 C23.88699577 37.18911526 24.53013677 38.42355478 25.15234375 39.66796875 C24.56889304 35.12906542 22.6797622 31.61966313 20.40234375 27.73046875 C20.0671875 27.13556641 19.73203125 26.54066406 19.38671875 25.92773438 C16.99982869 21.7913624 14.48844678 18.1012895 11.15234375 14.66796875 C8.64617135 14.01357454 8.64617135 14.01357454 6.15234375 13.66796875 C3.93359375 11.8828125 3.93359375 11.8828125 1.65234375 9.60546875 C-8.57229464 0.10469857 -19.83987438 -4.93542898 -32.84765625 -9.33203125 C-33.91113281 -9.69554687 -34.97460938 -10.0590625 -36.0703125 -10.43359375 C-42.85370479 -12.62794006 -49.17471089 -12.55254262 -56.28515625 -12.58203125 C-57.49365234 -12.60265625 -58.70214844 -12.62328125 -59.94726562 -12.64453125 C-71.81967648 -12.69540393 -82.19261238 -10.52186375 -92.84765625 -5.33203125 C-93.94078125 -4.89890625 -95.03390625 -4.46578125 -96.16015625 -4.01953125 C-120.04778965 6.38314781 -131.77386964 24.67834959 -141.84765625 47.66796875 C-143.08495895 43.8630421 -142.36254149 41.93259977 -140.59936523 38.33764648 C-140.24817627 37.66290283 -139.8969873 36.98815918 -139.53515625 36.29296875 C-139.17558838 35.59051025 -138.81602051 34.88805176 -138.44555664 34.16430664 C-128.28377372 14.88314165 -112.35187 -2.66676705 -91.08203125 -9.55078125 C-88.60391705 -10.2727589 -86.12225753 -10.92738862 -83.62109375 -11.5703125 C-80.95932655 -12.05549869 -80.95932655 -12.05549869 -79.84765625 -13.33203125 C-77.16221279 -13.8947789 -74.48512238 -14.41264148 -71.78515625 -14.89453125 C-71.02654297 -15.03310547 -70.26792969 -15.17167969 -69.48632812 -15.31445312 C-67.6074065 -15.65714952 -65.72760924 -15.99503855 -63.84765625 -16.33203125 C-72.24176003 -16.05315737 -79.73290239 -14.77149576 -87.75390625 -12.26953125 C-90.44793575 -11.45315867 -93.07965046 -10.82779348 -95.84765625 -10.33203125 C-95.51765625 -11.32203125 -95.18765625 -12.31203125 -94.84765625 -13.33203125 C-92.45101389 -14.35959928 -90.21061779 -15.16144031 -87.72265625 -15.89453125 C-87.00561523 -16.11069092 -86.28857422 -16.32685059 -85.54980469 -16.54956055 C-55.79713413 -25.13005318 -24.00506507 -19.65846893 0 0 Z " fill="#BDBDBF" transform="translate(310.84765625,191.33203125)"/>
<path d="M0 0 C0.495 1.485 0.495 1.485 1 3 C-0.20670415 3.91881027 -1.41546424 4.83492051 -2.625 5.75 C-3.35460937 6.30558594 -4.08421875 6.86117187 -4.8359375 7.43359375 C-7 9 -7 9 -10.25 10.8125 C-14.85826616 14.47816627 -16.47453211 19.07297965 -17.5 24.78515625 C-18.0792913 30.04946592 -17.96083904 34.76876521 -17 40 C-17 41.32 -17 42.64 -17 44 C-13.04 44 -9.08 44 -5 44 C-5 44.99 -5 45.98 -5 47 C-5.66 47 -6.32 47 -7 47 C-6.67 47.66 -6.34 48.32 -6 49 C-3.38821958 49.47222764 -3.38821958 49.47222764 -0.3125 49.625 C0.72261719 49.69976562 1.75773437 49.77453125 2.82421875 49.8515625 C5.88848825 49.99478789 8.93292457 50.02758988 12 50 C12 50.33 12 50.66 12 51 C10.35 51 8.7 51 7 51 C7.40089844 51.40347656 7.80179687 51.80695313 8.21484375 52.22265625 C12.41869568 56.71248451 15.75429358 61.51225343 18.9375 66.75 C19.3389624 67.39976807 19.7404248 68.04953613 20.15405273 68.71899414 C22.20345642 72.1679254 23 73.89413393 23 78 C17.50068342 78.90794086 12.13329635 79.24612832 6.5625 79.3125 C5.75490234 79.34150391 4.94730469 79.37050781 4.11523438 79.40039062 C-2.70259655 79.47181029 -7.71298961 77.71226791 -12.98828125 73.359375 C-17.55542267 67.80874886 -19.88913189 62.10955589 -21 55 C-21.66 55 -22.32 55 -23 55 C-27.83536575 60.08985869 -31.04384796 66.50100739 -34.2890625 72.65625 C-34.85367188 73.4296875 -35.41828125 74.203125 -36 75 C-37.32 75 -38.64 75 -40 75 C-39.46469282 70.88392185 -38.29723677 68.70919513 -35.625 65.5625 C-34.91601562 64.67691406 -34.20703125 63.79132813 -33.4765625 62.87890625 C-31.70084017 60.81469906 -29.98560634 59.00941887 -28.0234375 57.15234375 C-21.45644633 50.52839506 -19.43293694 45.52093015 -19.390625 36.08007812 C-19.49656841 32.67286237 -19.69501724 29.28097233 -19.90625 25.87890625 C-20.26466396 18.7543771 -18.46321151 14.00157441 -13.6640625 8.5546875 C-4.50753769 0 -4.50753769 0 0 0 Z " fill="#79A839" transform="translate(285,214)"/>
<path d="M0 0 C0.76248047 0.04382813 1.52496094 0.08765625 2.31054688 0.1328125 C7.91693579 0.4897179 7.91693579 0.4897179 10.1875 1.625 C11.5796875 1.74875 11.5796875 1.74875 13 1.875 C22.11347856 3.0952147 30.69639506 7.48404563 38.1875 12.625 C35.26802963 14.93199407 32.29348142 16.71234307 29 18.4375 C23.83996103 21.20477896 18.99005654 24.28099767 14.1875 27.625 C14.1875 26.635 14.1875 25.645 14.1875 24.625 C14.8475 24.625 15.5075 24.625 16.1875 24.625 C16.290625 24.00625 16.39375 23.3875 16.5 22.75 C17.1875 20.625 17.1875 20.625 20.1875 18.625 C22.50956525 17.92008733 24.84343068 17.25287571 27.1875 16.625 C28.1775 16.295 29.1675 15.965 30.1875 15.625 C30.1875 14.965 30.1875 14.305 30.1875 13.625 C13.427742 4.89433537 -4.69444102 3.08827196 -22.8125 8.625 C-30.63733346 11.2918086 -38.16005125 14.40730637 -43.8125 20.625 C-45.43996694 22.32996537 -47.10141311 24.00397032 -48.8125 25.625 C-49.4725 25.625 -50.1325 25.625 -50.8125 25.625 C-51.8025 28.1 -51.8025 28.1 -52.8125 30.625 C-53.4725 30.625 -54.1325 30.625 -54.8125 30.625 C-55.080625 31.346875 -55.34875 32.06875 -55.625 32.8125 C-56.8125 35.625 -56.8125 35.625 -58.1875 37.8125 C-66.79522681 52.7104887 -66.914314 72.17672586 -62.8125 88.625 C-61.60742473 91.39520352 -60.30271083 93.95665198 -58.73828125 96.5390625 C-57.60227987 99.09866055 -57.91264849 100.02887667 -58.8125 102.625 C-59.1621418 104.95594534 -59.49804487 107.28904762 -59.8125 109.625 C-69.15564195 101.66602723 -72.60307029 88.32959196 -73.8125 76.625 C-75.01708881 56.04314636 -69.73258848 38.22702813 -56.4140625 22.4140625 C-50.40005254 15.96661038 -44.31051595 10.36364138 -35.8125 7.625 C-35.3369165 7.13459229 -34.86133301 6.64418457 -34.37133789 6.13891602 C-31.71750822 3.56156319 -28.07834935 3.25124986 -24.5625 2.5 C-23.82386719 2.33113281 -23.08523437 2.16226563 -22.32421875 1.98828125 C-14.75047015 0.29186842 -7.74548403 -0.53741433 0 0 Z " fill="#D8D8D8" transform="translate(256.8125,195.375)"/>
<path d="M0 0 C0.66 0 1.32 0 2 0 C3.22343904 1.71942784 4.44295474 3.4420046 5.62890625 5.1875 C7.42681152 7.56421808 9.65847595 9.17881463 12 11 C12.33 11.99 12.66 12.98 13 14 C14.65948148 15.01187895 16.32580562 16.0126546 18 17 C18 17.66 18 18.32 18 19 C18.680625 19.2475 19.36125 19.495 20.0625 19.75 C23 21 23 21 26.0625 22.875 C40.0819585 30.74245984 57.304029 31.331135 72.875 27.8125 C77.48966717 26.39469975 81.72868471 24.33329374 85.94140625 21.98828125 C88 21 88 21 91 21 C91 20.34 91 19.68 91 19 C94.19026533 16.67980703 97.41726669 14.65356922 101 13 C101 12.34 101 11.68 101 11 C101.66 11 102.32 11 103 11 C103 10.34 103 9.68 103 9 C104.32 8.67 105.64 8.34 107 8 C107 8.99 107 9.98 107 11 C107.99 11.495 107.99 11.495 109 12 C99.63647728 24.57387337 83.63887393 33.12195301 68.51171875 36.53515625 C63.91455077 37.14368015 59.38378156 37.28286412 54.75 37.3125 C53.91009521 37.31813965 53.07019043 37.3237793 52.20483398 37.32958984 C46.85837619 37.26724356 42.10435583 36.57868677 37 35 C36.35820801 34.802854 35.71641602 34.60570801 35.05517578 34.40258789 C20.80372596 29.80379172 7.82889365 22.15414157 -0.625 9.375 C-2 6 -2 6 -1.25 2.5625 C-0.8375 1.716875 -0.425 0.87125 0 0 Z " fill="#CACACA" transform="translate(198,297)"/>
<path d="M0 0 C0.99 0 1.98 0 3 0 C3 0.66 3 1.32 3 2 C4.05574219 2.16822266 4.05574219 2.16822266 5.1328125 2.33984375 C14.0945833 4.40324874 21.9963228 9.22482495 27 17 C29.07426767 21.09303655 29.24114665 24.50253449 29.1875 29.0625 C29.18105469 30.27035156 29.17460937 31.47820312 29.16796875 32.72265625 C29.03328371 35.35058061 28.7772803 37.50648479 28 40 C20.76671363 40.46169913 15.01306057 38.83146819 8.8125 35.0625 C3.03187193 29.52475546 -0.03229533 22.72741936 -0.375 14.76953125 C-0.43532525 9.83553796 -0.2628789 4.9265453 0 0 Z " fill="#78A537" transform="translate(233,223)"/>
<path d="M0 0 C1.65 0 3.3 0 5 0 C4.49906412 5.00935883 3.34135403 8.56837549 1 13 C3.46605202 11.93197747 5.92177711 10.84678761 8.375 9.75 C9.07367188 9.44964844 9.77234375 9.14929688 10.4921875 8.83984375 C14.69068135 6.94244749 15.86124417 6.27751167 18 2 C20.97 2 23.94 2 27 2 C27 2.99 27 3.98 27 5 C26.34 5.33 25.68 5.66 25 6 C24.01740598 7.71420821 24.01740598 7.71420821 23.125 9.75 C21.86195207 12.39863035 20.74367701 14.31663428 18.875 16.625 C16.80210711 18.92701883 16.80210711 18.92701883 16.1875 22.0625 C14.87705528 25.30412641 13.58471739 26.67237378 10.45703125 28.24609375 C2.31470273 30.74445528 -5.99712776 30.66074876 -14 28 C-13.67 26.68 -13.34 25.36 -13 24 C-15.31 24 -17.62 24 -20 24 C-20 23.34 -20 22.68 -20 22 C-18.68 21.67 -17.36 21.34 -16 21 C-16 20.34 -16 19.68 -16 19 C-14.65673165 18.11642793 -13.27324062 17.29372075 -11.875 16.5 C-5.68476388 12.54566936 -2.29918447 6.89755341 0 0 Z " fill="#719F32" transform="translate(292,235)"/>
<path d="M0 0 C6.97180067 1.21729853 11.96384073 3.39809512 18 7 C19.82926563 8.00742165 21.66276912 9.00717886 23.5 10 C28.34852105 12.63967437 33.17928533 15.30992218 38 18 C38.33 17.34 38.66 16.68 39 16 C43 20.5 43 20.5 43 25 C36.56333431 27.04576196 27.02336915 27.24840876 20.5703125 25.24609375 C17.9139177 23.74080336 15.67625946 21.73649026 13.3125 19.8125 C11.20939742 17.87623307 11.20939742 17.87623307 8.9609375 17.62109375 C7 17 7 17 5.98828125 15.328125 C5.76527344 14.64234375 5.54226563 13.9565625 5.3125 13.25 C5.0753125 12.53328125 4.838125 11.8165625 4.59375 11.078125 C3.92437449 8.73531072 3.376255 6.40803202 3 4 C2.34 4 1.68 4 1 4 C-3.83536575 9.08985869 -7.04384796 15.50100739 -10.2890625 21.65625 C-10.85367188 22.4296875 -11.41828125 23.203125 -12 24 C-13.32 24 -14.64 24 -16 24 C-15.47111463 19.73869502 -14.13079075 17.50587633 -11.375 14.25 C-10.66085938 13.39148438 -9.94671875 12.53296875 -9.2109375 11.6484375 C-8.48132813 10.77445312 -7.75171875 9.90046875 -7 9 C-5.65914395 7.2975648 -4.3252018 5.58964887 -3 3.875 C-2.13375 2.75738281 -2.13375 2.75738281 -1.25 1.6171875 C-0.8375 1.08351563 -0.425 0.54984375 0 0 Z " fill="#75A434" transform="translate(261,265)"/>
<path d="M0 0 C0 0.66 0 1.32 0 2 C-1.93343582 3.29991435 -3.92482019 4.51401315 -5.9375 5.6875 C-17.74522235 12.75517611 -28.56251422 21.23389749 -36 33 C-36.64839844 34.01835937 -37.29679688 35.03671875 -37.96484375 36.0859375 C-45.19955096 48.14855824 -50.68049585 61.70958725 -50 76 C-49.67555908 76.64477295 -49.35111816 77.2895459 -49.0168457 77.95385742 C-47.84160362 80.3187323 -47.67840036 82.04735611 -47.54296875 84.67578125 C-47.45631958 86.03074707 -47.45631958 86.03074707 -47.36791992 87.41308594 C-47.30838135 88.36989258 -47.24884277 89.32669922 -47.1875 90.3125 C-46.20893709 103.03902849 -43.17188111 113.66924315 -37.015625 124.94921875 C-36.01816109 126.96332856 -35.45565025 128.80594497 -35 131 C-35.99 130.67 -36.98 130.34 -38 130 C-33.27339163 139.45321675 -25.48871806 146.68588935 -18 154 C-16.66666667 155.33333333 -15.33333333 156.66666667 -14 158 C-25.57021933 154.55543089 -35.39511804 141.42859598 -41.20703125 131.3671875 C-54.65429158 106.11329119 -56.47860596 78.24304238 -48.3059082 51.06469727 C-46.08058717 44.08476217 -43.20043367 37.98873712 -39 32 C-38.49984375 31.278125 -37.9996875 30.55625 -37.484375 29.8125 C-30.28197863 20.02283503 -13.62232681 0 0 0 Z " fill="#CECFD0" transform="translate(214,180)"/>
<path d="M0 0 C0.7115625 0.55945313 1.423125 1.11890625 2.15625 1.6953125 C5.32141579 4.2767387 7.31182648 6.2197837 9 10 C8.01 10.33 7.02 10.66 6 11 C5.03513672 10.05640625 5.03513672 10.05640625 4.05078125 9.09375 C-7.24778672 -1.60845989 -19.3523671 -8.04913161 -34 -13 C-35.06347656 -13.36351562 -36.12695312 -13.72703125 -37.22265625 -14.1015625 C-44.00604854 -16.29590881 -50.32705464 -16.22051137 -57.4375 -16.25 C-58.64599609 -16.270625 -59.85449219 -16.29125 -61.09960938 -16.3125 C-72.97202023 -16.36337268 -83.34495613 -14.1898325 -94 -9 C-95.093125 -8.566875 -96.18625 -8.13375 -97.3125 -7.6875 C-121.2001334 2.71517906 -132.92621339 21.01038084 -143 44 C-144.2373027 40.19507335 -143.51488524 38.26463102 -141.75170898 34.66967773 C-141.40052002 33.99493408 -141.04933105 33.32019043 -140.6875 32.625 C-140.32793213 31.9225415 -139.96836426 31.22008301 -139.59790039 30.49633789 C-129.43611747 11.2151729 -113.50421375 -6.3347358 -92.234375 -13.21875 C-89.7562608 -13.94072765 -87.27460128 -14.59535737 -84.7734375 -15.23828125 C-82.1116703 -15.72346744 -82.1116703 -15.72346744 -81 -17 C-50.74360328 -24.08292239 -24.52349563 -19.70054149 0 0 Z " fill="#EDEEEF" transform="translate(312,195)"/>
<path d="M0 0 C1.25871994 2.92742294 0.99114188 4.02357161 -0.15234375 7.06640625 C-11.83841035 29.95268548 -27.32929256 44.85981413 -51 55 C-51.7425 55.33128906 -52.485 55.66257812 -53.25 56.00390625 C-61.42407967 59.41526611 -69.39658076 59.24888344 -78 58 C-78 57.34 -78 56.68 -78 56 C-75.3021567 54.65107835 -72.81322129 54.58906455 -69.8125 54.25 C-48.73763846 51.27928407 -29.87910737 40.88805922 -15.984375 24.66796875 C-10.99438842 17.95899073 -6.60797258 10.53876375 -3 3 C-2.34 3 -1.68 3 -1 3 C-0.67 2.01 -0.34 1.02 0 0 Z " fill="#EDEDEE" transform="translate(337,293)"/>
<path d="M0 0 C0.66 0 1.32 0 2 0 C2.59181692 11.73770229 1.72305024 22.4046232 -4 33 C-8.51567236 31.53190024 -10.02670533 28.00777268 -12.125 24.0625 C-14.91565306 18.94509495 -14.91565306 18.94509495 -18 14 C-18 13.01 -18 12.02 -18 11 C-17.03578125 10.62488281 -16.0715625 10.24976563 -15.078125 9.86328125 C-13.80177696 9.34711109 -12.52575204 8.83014145 -11.25 8.3125 C-10.61578125 8.06822266 -9.9815625 7.82394531 -9.328125 7.57226562 C-4.95437826 5.77265108 -2.75678652 3.78091983 0 0 Z " fill="#F7FAF4" transform="translate(316,259)"/>
<path d="M0 0 C2.44657165 2.16612 4.81063478 4.38943538 7.15234375 6.66796875 C7.7865625 7.25191406 8.42078125 7.83585937 9.07421875 8.4375 C18.34164218 17.1923447 23.85234902 28.25580566 29.15234375 39.66796875 C29.79236328 41.01955078 29.79236328 41.01955078 30.4453125 42.3984375 C31.23806515 44.94312972 31.06695953 46.19850614 30.15234375 48.66796875 C29.73984375 47.66378906 29.32734375 46.65960938 28.90234375 45.625 C17.9564412 19.49234038 1.66772985 0.26772464 -24.82324219 -10.97338867 C-42.79384254 -18.28000056 -68.29396428 -20.30779045 -86.68652344 -12.55712891 C-87.29399414 -12.28304199 -87.90146484 -12.00895508 -88.52734375 -11.7265625 C-91.84765625 -10.33203125 -91.84765625 -10.33203125 -95.84765625 -10.33203125 C-95.51765625 -11.32203125 -95.18765625 -12.31203125 -94.84765625 -13.33203125 C-92.45101389 -14.35959928 -90.21061779 -15.16144031 -87.72265625 -15.89453125 C-87.00561523 -16.11069092 -86.28857422 -16.32685059 -85.54980469 -16.54956055 C-55.79713413 -25.13005318 -24.00506507 -19.65846893 0 0 Z " fill="#9D9DA0" transform="translate(310.84765625,191.33203125)"/>
<path d="M0 0 C0.33 0 0.66 0 1 0 C-0.01126121 19.55105004 -10.99398988 38.77740927 -25 52 C-25.91394531 52.87140625 -26.82789063 53.7428125 -27.76953125 54.640625 C-46.68040442 71.50777864 -71.74242158 79.27677153 -96.8671875 78.15673828 C-108.86398278 77.27510566 -121.45907562 73.8560691 -132 68 C-127.50657591 66.54711797 -124.43418548 68.1251083 -120.25 69.875 C-101.11201587 77.84309605 -74.77102527 76.35013444 -55.78833008 68.59057617 C-44.3254817 63.6630833 -35.04616168 57.64751726 -26 49 C-25.38382812 48.45859375 -24.76765625 47.9171875 -24.1328125 47.359375 C-12.16486798 36.43931502 -4.96216547 19.82848345 -1.54296875 4.328125 C-1 2 -1 2 0 0 Z " fill="#8D8E91" transform="translate(343,278)"/>
<path d="M0 0 C1.49236667 4.47710001 0.68098612 6.60774594 -1 11 C-2.67629349 14.28289425 -4.49365319 17.48190645 -6.3125 20.6875 C-10.219791 27.66857749 -13.92955187 34.60378239 -17 42 C-17.33 42 -17.66 42 -18 42 C-17.98259766 41.11248047 -17.98259766 41.11248047 -17.96484375 40.20703125 C-17.87759019 35.3184018 -17.87759019 35.3184018 -18.5625 30.5 C-19.7691196 23.60503083 -17.90110204 17.38191607 -14.66015625 11.296875 C-11.83752563 7.39168252 -8.10988743 5.36006058 -4 3 C-2.65320624 2.01820352 -1.31558703 1.02323436 0 0 Z " fill="#72A032" transform="translate(285,217)"/>
<path d="M0 0 C1.65 0.99 3.3 1.98 5 3 C5 3.66 5 4.32 5 5 C5.61875 5.2475 6.2375 5.495 6.875 5.75 C9.35068687 7.20628639 9.95125002 8.37812506 11 11 C11.66 11 12.32 11 13 11 C13 11.66 13 12.32 13 13 C13.66 13 14.32 13 15 13 C16.48846401 15.90927057 17.90414824 18.73041691 19 21.8125 C19.33 22.534375 19.66 23.25625 20 24 C20.99 24.33 21.98 24.66 23 25 C11.615 24.505 11.615 24.505 0 24 C0 16.08 0 8.16 0 0 Z " fill="#E0E3DA" transform="translate(296,210)"/>
<path d="M0 0 C0 0.33 0 0.66 0 1 C-0.8971875 1.03738281 -1.794375 1.07476562 -2.71875 1.11328125 C-15.14179553 1.76780121 -27.44472007 3.13461898 -39 8 C-40.35410209 8.37523311 -41.70827403 8.75021422 -43.0625 9.125 C-65.09631176 16.52016918 -80.37325801 34.77859417 -90.60620117 54.82128906 C-92.11502127 57.86141338 -93.57124881 60.92143011 -95 64 C-96.39173946 59.82478163 -94.72098199 57.25251937 -93 53.4375 C-92.67966797 52.71949219 -92.35933594 52.00148437 -92.02929688 51.26171875 C-87.78632941 42.02849014 -81.88878147 34.41521673 -75 27 C-74.43023437 26.35417969 -73.86046875 25.70835937 -73.2734375 25.04296875 C-67.079252 18.36115589 -58.72336896 12.13943124 -50.13671875 8.9296875 C-49.07904297 8.46949219 -49.07904297 8.46949219 -48 8 C-47.67 7.01 -47.34 6.02 -47 5 C-47 5.66 -47 6.32 -47 7 C-46.05640625 6.66226563 -45.1128125 6.32453125 -44.140625 5.9765625 C-29.22768589 0.74227143 -15.73999948 -0.27996047 0 0 Z " fill="#E9EAEC" transform="translate(262,174)"/>
<path d="M0 0 C-0.50144531 1.21816406 -1.00289063 2.43632812 -1.51953125 3.69140625 C-3.88377251 10.76476234 -2.97306778 17.98295744 -2.44335938 25.31835938 C-2.1640824 33.1335365 -3.59752019 37.00670463 -8.88208008 42.7824707 C-9.58099365 43.51425537 -10.27990723 44.24604004 -11 45 C-12.00827673 46.25868832 -13.00030901 47.53072331 -13.96875 48.8203125 C-14.60683594 49.65175781 -14.60683594 49.65175781 -15.2578125 50.5 C-15.66773438 51.03625 -16.07765625 51.5725 -16.5 52.125 C-17.16128906 52.98738281 -17.16128906 52.98738281 -17.8359375 53.8671875 C-18.89155465 55.24407943 -19.94592528 56.62192691 -21 58 C-22 55 -22 55 -21.25 52.9375 C-20 51 -20 51 -17 49 C-16.67 48.01 -16.34 47.02 -16 46 C-15.34 46 -14.68 46 -14 46 C-13.67 44.68 -13.34 43.36 -13 42 C-13.845625 41.773125 -14.69125 41.54625 -15.5625 41.3125 C-19.67404851 39.74263602 -22.50393484 37.65700952 -26 35 C-25.67 34.34 -25.34 33.68 -25 33 C-24.05125 33.45375 -23.1025 33.9075 -22.125 34.375 C-17.57616599 36.34585006 -12.86497776 37.16796155 -8 38 C-7.89098495 35.16560863 -7.81222096 32.33549797 -7.75 29.5 C-7.71648437 28.70851562 -7.68296875 27.91703125 -7.6484375 27.1015625 C-7.52316176 19.45974234 -10.12597718 13.84882738 -15 8 C-13.35 8.33 -11.7 8.66 -10 9 C-9.67 10.65 -9.34 12.3 -9 14 C-8.34 13.67 -7.68 13.34 -7 13 C-6.3938445 10.20270463 -6.04101869 7.40253721 -5.66015625 4.56640625 C-4.81961977 1.29875853 -3.4881758 0 0 0 Z " fill="#E3F5C7" transform="translate(269,225)"/>
<path d="M0 0 C3.02089478 -0.02716089 6.04154129 -0.04691657 9.0625 -0.0625 C9.91005859 -0.07087891 10.75761719 -0.07925781 11.63085938 -0.08789062 C16.5361722 -0.10683006 21.16444755 0.16673655 26 1 C24.34667364 6.63633986 22.54613153 11.23805195 19 16 C18.47535156 16.70769531 17.95070313 17.41539062 17.41015625 18.14453125 C15.95102011 20.10492357 14.48044745 22.05567902 13 24 C12.36328125 22.171875 12.36328125 22.171875 12 20 C13.15761146 18.54471702 14.32844214 17.09645968 15.5859375 15.7265625 C17.99618329 12.78366571 19.40021538 9.43657438 21 6 C21.66 6 22.32 6 23 6 C23 5.01 23 4.02 23 3 C20.03 3 17.06 3 14 3 C13.68869141 4.13501953 13.68869141 4.13501953 13.37109375 5.29296875 C11.55625266 8.87611653 9.6621751 9.62392513 6.0625 11.3125 C5.00160156 11.82425781 3.94070313 12.33601562 2.84765625 12.86328125 C0 14 0 14 -3 14 C-2.690625 13.154375 -2.38125 12.30875 -2.0625 11.4375 C-0.91520442 7.72566137 0 3.91555776 0 0 Z " fill="#7EA641" transform="translate(296,234)"/>
<path d="M0 0 C1.65 0 3.3 0 5 0 C4.49906412 5.00935883 3.34135403 8.56837549 1 13 C1.85722656 12.59007812 2.71445312 12.18015625 3.59765625 11.7578125 C14.9543058 6.4059754 14.9543058 6.4059754 21 5 C18.52899442 8.70650837 15.8436385 9.57797323 11.875 11.1875 C5.23986795 13.96204022 -1.17435328 17.01007441 -7.50634766 20.42260742 C-11.78497986 22.65229359 -15.26765492 23.57366261 -20 24 C-20 23.34 -20 22.68 -20 22 C-18.68 21.67 -17.36 21.34 -16 21 C-16 20.34 -16 19.68 -16 19 C-14.65673165 18.11642793 -13.27324062 17.29372075 -11.875 16.5 C-5.68476388 12.54566936 -2.29918447 6.89755341 0 0 Z " fill="#547F1D" transform="translate(292,235)"/>
<path d="M0 0 C0.33 0.99 0.66 1.98 1 3 C-0.20670415 3.91881027 -1.41546424 4.83492051 -2.625 5.75 C-3.35460937 6.30558594 -4.08421875 6.86117187 -4.8359375 7.43359375 C-7 9 -7 9 -10.25 10.8125 C-14.85826616 14.47816627 -16.47453211 19.07297965 -17.5 24.78515625 C-18.0792913 30.04946592 -17.96083904 34.76876521 -17 40 C-17 41.32 -17 42.64 -17 44 C-15.02 44.66 -13.04 45.32 -11 46 C-11 46.99 -11 47.98 -11 49 C-15.1196377 50.29243536 -18.66831683 51.26252625 -23 51 C-22.50886719 50.2972998 -22.01773437 49.59459961 -21.51171875 48.87060547 C-19.78163552 45.58534729 -19.68676858 43.74970292 -19.8125 40.0703125 C-19.83570313 38.94496094 -19.85890625 37.81960937 -19.8828125 36.66015625 C-19.96067881 34.31118933 -20.03880208 31.96223091 -20.1171875 29.61328125 C-20.29393795 21.0212455 -19.55433167 15.23996233 -13.6640625 8.5546875 C-4.50753769 0 -4.50753769 0 0 0 Z " fill="#80A24F" transform="translate(285,214)"/>
<path d="M0 0 C1.70884005 1.62339805 3.37446717 3.29319053 5 5 C5 5.66 5 6.32 5 7 C6.32 7 7.64 7 9 7 C9.33 6.01 9.66 5.02 10 4 C12.375 4.5625 12.375 4.5625 15 6 C16.1875 9.5625 16.1875 9.5625 17 13 C17.66 13.33 18.32 13.66 19 14 C19 18.62 19 23.24 19 28 C18.01 28 17.02 28 16 28 C14.74609375 26.375 14.74609375 26.375 13.4375 24 C10.2208923 18.3322558 6.76975649 12.8431511 3.25170898 7.359375 C0 2.21939618 0 2.21939618 0 0 Z " fill="#73A134" transform="translate(242,233)"/>
<path d="M0 0 C0 0.66 0 1.32 0 2 C-1.93343582 3.29991435 -3.92482019 4.51401315 -5.9375 5.6875 C-17.74522235 12.75517611 -28.56251422 21.23389749 -36 33 C-36.64839844 34.01835937 -37.29679688 35.03671875 -37.96484375 36.0859375 C-44.62025436 47.18268152 -47.91397432 58.46128304 -51 71 C-51.33 71 -51.66 71 -52 71 C-51.53400229 53.37681396 -43.66864171 35.94982703 -32 23 C-31.56945312 22.52030762 -31.13890625 22.04061523 -30.6953125 21.54638672 C-23.92903038 14.11351113 -10.79642801 0 0 0 Z " fill="#919397" transform="translate(214,180)"/>
<path d="M0 0 C4.11818671 3.79633908 6.97010247 7.75265261 9.8125 12.5625 C10.42254883 13.5515332 10.42254883 13.5515332 11.04492188 14.56054688 C13.13356301 18.05331651 14 19.84146717 14 24 C8.50068342 24.90794086 3.13329635 25.24612832 -2.4375 25.3125 C-3.64889648 25.35600586 -3.64889648 25.35600586 -4.88476562 25.40039062 C-10.72030802 25.4615204 -15.15994428 24.35016874 -20 21 C-21.91401262 19.09767422 -23.4044842 17.19383423 -25 15 C-24.01 14.67 -23.02 14.34 -22 14 C-19.84375 15.3984375 -19.84375 15.3984375 -17.5 17.375 C-13.3817388 20.82061187 -10.72222473 22.13198869 -5.33203125 22.09765625 C-4.43935547 22.09443359 -3.54667969 22.09121094 -2.62695312 22.08789062 C-1.69818359 22.07951172 -0.76941406 22.07113281 0.1875 22.0625 C1.12787109 22.05798828 2.06824219 22.05347656 3.03710938 22.04882812 C5.35813712 22.03704626 7.67903644 22.02059558 10 22 C9.505 19.03 9.505 19.03 9 16 C8.01 15.67 7.02 15.34 6 15 C6 13.68 6 12.36 6 11 C5.34 11 4.68 11 4 11 C3.32880451 9.5437455 2.66318193 8.08492133 2 6.625 C1.62875 5.81289063 1.2575 5.00078125 0.875 4.1640625 C0 2 0 2 0 0 Z " fill="#83A356" transform="translate(294,268)"/>
<path d="M0 0 C1 3 1 3 -0.15234375 5.78515625 C-4.1553387 13.13419949 -8.40899653 19.71553873 -14 26 C-14.60328125 26.68578125 -15.2065625 27.3715625 -15.828125 28.078125 C-28.27245275 41.35904621 -48.50513321 53.11984244 -66.95703125 54.16796875 C-69.31584931 54.18446398 -71.64594605 54.14061827 -74 54 C-73.67 53.34 -73.34 52.68 -73 52 C-70.97079501 51.64774928 -68.92396431 51.39606348 -66.875 51.1875 C-45.77837741 48.38460187 -26.86281553 37.86904086 -12.984375 21.66796875 C-7.99438842 14.95899073 -3.60797258 7.53876375 0 0 Z " fill="#A7A7A7" transform="translate(334,296)"/>
<path d="M0 0 C0.99 0.33 1.98 0.66 3 1 C3.8125 4.25 3.8125 4.25 4 8 C1.8125 10.125 1.8125 10.125 -1 12 C-3.861453 15.1884762 -5.52642019 18.00028337 -7 22 C-7.66 22.99 -8.32 23.98 -9 25 C-10.32 24.67 -11.64 24.34 -13 24 C-13 23.34 -13 22.68 -13 22 C-13.99 21.67 -14.98 21.34 -16 21 C-15.01 21 -14.02 21 -13 21 C-12.72800781 20.27683594 -12.45601562 19.55367188 -12.17578125 18.80859375 C-9.25519515 11.83217713 -5.02659226 5.61795605 0 0 Z " fill="#D1D5D0" transform="translate(262,268)"/>
<path d="M0 0 C2 3 2 3 1.7578125 5.69921875 C1.54898437 6.68535156 1.34015625 7.67148438 1.125 8.6875 C0.92132813 9.68136719 0.71765625 10.67523438 0.5078125 11.69921875 C0.34023438 12.45847656 0.17265625 13.21773437 0 14 C-1.32 14 -2.64 14 -4 14 C-4.2475 14.556875 -4.495 15.11375 -4.75 15.6875 C-8.6160177 22.83963274 -13.63905812 25.18552222 -21 28 C-21 28.66 -21 29.32 -21 30 C-21.66 30 -22.32 30 -23 30 C-23.33 30.66 -23.66 31.32 -24 32 C-25.37562854 30.71034824 -26.70766393 29.37310707 -28 28 C-28 27.34 -28 26.68 -28 26 C-27.3709375 25.85304688 -26.741875 25.70609375 -26.09375 25.5546875 C-14.90549586 22.62282572 -8.87037937 16.86161614 -3 7 C-1.84016125 4.68443541 -0.8992391 2.4332352 0 0 Z " fill="#BECFAE" transform="translate(320,239)"/>
<path d="M0 0 C-0.80824219 0.32613281 -1.61648437 0.65226563 -2.44921875 0.98828125 C-3.51785156 1.42527344 -4.58648437 1.86226562 -5.6875 2.3125 C-7.27111328 2.95638672 -7.27111328 2.95638672 -8.88671875 3.61328125 C-32.49135704 14.12726694 -45.03997799 33.27000564 -55 56 C-56.2373027 52.19507335 -55.51488524 50.26463102 -53.75170898 46.66967773 C-53.40052002 45.99493408 -53.04933105 45.32019043 -52.6875 44.625 C-52.32793213 43.9225415 -51.96836426 43.22008301 -51.59790039 42.49633789 C-41.77534073 23.85882172 -26.38319312 6.40626427 -5.9375 -0.71875 C-3.69566245 -1.04417803 -2.14152655 -0.68834782 0 0 Z " fill="#A4A5A6" transform="translate(224,183)"/>
<path d="M0 0 C0.99 0.495 0.99 0.495 2 1 C2.38671875 2.72265625 2.38671875 2.72265625 2.6875 5.0625 C6.19100944 23.92755083 18.04393395 38.79015172 31.59619141 51.66064453 C33.42897968 53.40928392 35.2175241 55.20026041 37 57 C25.43196274 53.55608051 15.62135963 40.43755795 9.796875 30.38671875 C7.14116175 25.3812766 4.92632382 20.32571881 3 15 C2.68160156 14.16339844 2.36320313 13.32679688 2.03515625 12.46484375 C0.47932537 8.17017694 -0.35649899 4.63448693 0 0 Z " fill="#9D9EA0" transform="translate(163,281)"/>
<path d="M0 0 C0.495 1.485 0.495 1.485 1 3 C0.28569824 3.03963867 -0.42860352 3.07927734 -1.16455078 3.12011719 C-14.30235757 3.8863305 -26.49679525 4.72112549 -39 9 C-40.66083943 9.36124962 -42.32625123 9.7042739 -44 10 C-43.67 9.01 -43.34 8.02 -43 7 C-40.60335764 5.97243197 -38.36296154 5.17059094 -35.875 4.4375 C-35.15795898 4.22134033 -34.44091797 4.00518066 -33.70214844 3.7824707 C-22.63852099 0.59178657 -11.49820413 -0.38541466 0 0 Z " fill="#B7B8B9" transform="translate(259,171)"/>
<path d="M0 0 C10.4714647 -0.36718123 19.78784437 0.3172528 30 3 C30.82371094 3.17015625 31.64742188 3.3403125 32.49609375 3.515625 C38.55983076 4.94719866 43.65910669 7.8899931 49 11 C49.75514893 11.43965088 50.51029785 11.87930176 51.28833008 12.33227539 C56.74161609 15.61242414 56.74161609 15.61242414 59 19 C55.16745084 17.59496383 51.8974713 15.78100933 48.4375 13.625 C42.49840493 10.10255274 36.59316666 7.94840079 30 6 C29.01 5.65710938 28.02 5.31421875 27 4.9609375 C18.32263117 2.1814678 9.04365063 1.60932398 0 1 C0 0.67 0 0.34 0 0 Z " fill="#ACACAC" transform="translate(248,176)"/>
<path d="M0 0 C0.33 0.66 0.66 1.32 1 2 C1.99 2 2.98 2 4 2 C3.67 2.66 3.34 3.32 3 4 C2.34 4 1.68 4 1 4 C-3.83536575 9.08985869 -7.04384796 15.50100739 -10.2890625 21.65625 C-10.85367188 22.4296875 -11.41828125 23.203125 -12 24 C-13.32 24 -14.64 24 -16 24 C-15.47111463 19.73869502 -14.13079075 17.50587633 -11.375 14.25 C-10.66085938 13.39148438 -9.94671875 12.53296875 -9.2109375 11.6484375 C-8.48132813 10.77445312 -7.75171875 9.90046875 -7 9 C-5.65914395 7.2975648 -4.3252018 5.58964887 -3 3.875 C-2.13375 2.75738281 -2.13375 2.75738281 -1.25 1.6171875 C-0.8375 1.08351563 -0.425 0.54984375 0 0 Z " fill="#788A53" transform="translate(261,265)"/>
<path d="M0 0 C0.9178125 0.00451172 1.835625 0.00902344 2.78125 0.01367188 C5.02090391 0.02533674 7.26041545 0.04170386 9.5 0.0625 C9.5 0.3925 9.5 0.7225 9.5 1.0625 C8.6028125 1.09988281 7.705625 1.13726562 6.78125 1.17578125 C-4.22636049 1.75572767 -15.80122428 2.60082538 -26.125 6.75 C-29.53104423 8.07457275 -31.88531134 8.33360165 -35.5 8.0625 C-32.85021615 4.71439766 -29.84131745 4.04379149 -25.8125 2.9375 C-24.63300781 2.60492188 -23.45351562 2.27234375 -22.23828125 1.9296875 C-14.75584941 0.19395096 -7.64313689 -0.07220987 0 0 Z " fill="#FBFBFB" transform="translate(252.5,173.9375)"/>
<path d="M0 0 C6.49055895 1.29811179 11.3249255 3.66818207 17 7 C18.8514282 8.00506102 20.70569116 9.0049146 22.5625 10 C33.31252477 15.87466143 33.31252477 15.87466143 36 18 C36 18.66 36 19.32 36 20 C30.93156494 18.6662013 26.9376524 16.24530096 22.52734375 13.51953125 C19.66954726 11.80131976 16.74646741 10.32387259 13.74609375 8.875 C12 8 12 8 9.25 6.3125 C7.12517006 5.07301587 5.40367915 4.44512577 3 4 C3 3.34 3 2.68 3 2 C2.01 2 1.02 2 0 2 C0 1.34 0 0.68 0 0 Z " fill="#537F16" transform="translate(262,265)"/>
<path d="M0 0 C0.66 0.99 1.32 1.98 2 3 C1.57589844 3.53625 1.15179688 4.0725 0.71484375 4.625 C-8.37489168 16.77128383 -12.85694604 30.31940013 -16 45 C-16.33 45 -16.66 45 -17 45 C-16.57542118 28.94320086 -9.73182798 12.59413033 0 0 Z " fill="#959799" transform="translate(179,206)"/>
<path d="M0 0 C0.33 0 0.66 0 1 0 C0.98839844 0.71285156 0.97679687 1.42570313 0.96484375 2.16015625 C0.9139478 7.56239774 1.1271647 12.65388382 2 18 C2 19.32 2 20.64 2 22 C3.98 22.66 5.96 23.32 8 24 C8 24.99 8 25.98 8 27 C3.8803623 28.29243536 0.33168317 29.26252625 -4 29 C-3.26136719 28.00419922 -3.26136719 28.00419922 -2.5078125 26.98828125 C-0.6422036 23.29089573 -0.70546654 20.2148616 -0.875 16.1875 C-1.00028071 10.68016016 -0.9068793 5.4412758 0 0 Z " fill="#7F9E53" transform="translate(266,236)"/>
<path d="M0 0 C-0.99 2.97 -1.98 5.94 -3 9 C-3.66 9 -4.32 9 -5 9 C-5 14.28 -5 19.56 -5 25 C-5.66 25.33 -6.32 25.66 -7 26 C-7.20625 24.700625 -7.4125 23.40125 -7.625 22.0625 C-8.82185711 16.51823545 -11.63191029 12.48019481 -15 8 C-12.525 8.495 -12.525 8.495 -10 9 C-9.67 10.65 -9.34 12.3 -9 14 C-8.34 13.67 -7.68 13.34 -7 13 C-6.3938445 10.20270463 -6.04101869 7.40253721 -5.66015625 4.56640625 C-4.81961977 1.29875853 -3.4881758 0 0 0 Z " fill="#EAF8D0" transform="translate(269,225)"/>
<path d="M0 0 C5.82613067 0.77917857 10.90585419 2.74229736 16.3671875 4.84375 C24.35612012 7.38646404 32.68373643 7.27195471 41 7.5625 C42.15628906 7.60568359 43.31257813 7.64886719 44.50390625 7.69335938 C47.33583854 7.79867917 50.16784747 7.90081087 53 8 C53 8.33 53 8.66 53 9 C33.30557743 10.43379725 17.87204907 10.23894062 0 1 C0 0.67 0 0.34 0 0 Z " fill="#AAAAAC" transform="translate(211,345)"/>
<path d="M0 0 C0.33 0.99 0.66 1.98 1 3 C-0.06541016 3.18175781 -0.06541016 3.18175781 -1.15234375 3.3671875 C-2.07144531 3.53476562 -2.99054688 3.70234375 -3.9375 3.875 C-4.85402344 4.03742188 -5.77054687 4.19984375 -6.71484375 4.3671875 C-7.46894531 4.57601563 -8.22304688 4.78484375 -9 5 C-9.33 5.66 -9.66 6.32 -10 7 C-16.97669157 7.39325819 -22.51656189 6.63096039 -29 4 C-29 3.01 -29 2.02 -29 1 C-28.01 1.33 -27.02 1.66 -26 2 C-24.0079697 2.08291953 -22.01326287 2.10738177 -20.01953125 2.09765625 C-18.27446289 2.09282227 -18.27446289 2.09282227 -16.49414062 2.08789062 C-14.67172852 2.07532227 -14.67172852 2.07532227 -12.8125 2.0625 C-10.97268555 2.05573242 -10.97268555 2.05573242 -9.09570312 2.04882812 C-6.06375332 2.03703065 -3.03190094 2.02056921 0 2 C0 1.34 0 0.68 0 0 Z " fill="#BCCDA7" transform="translate(308,290)"/>
<path d="M0 0 C0.99 0 1.98 0 3 0 C4.07525194 2.65228812 5.09456151 5.28368454 6 8 C6.66 8 7.32 8 8 8 C9.625 10.5 9.625 10.5 11 13 C7.37 13 3.74 13 0 13 C0 8.71 0 4.42 0 0 Z " fill="#F7FAF1" transform="translate(301,220)"/>
<path d="M0 0 C0.99 0.33 1.98 0.66 3 1 C3.33 3.31 3.66 5.62 4 8 C2.8553125 8.1546875 2.8553125 8.1546875 1.6875 8.3125 C-1.25914648 9.06629329 -2.07981183 9.73068671 -4 12 C-5.5625 13.6875 -5.5625 13.6875 -7 15 C-7.66 15 -8.32 15 -9 15 C-9.99 17.475 -9.99 17.475 -11 20 C-11.33 19.34 -11.66 18.68 -12 18 C-8.84339071 11.45150618 -4.91057363 5.35698941 0 0 Z " fill="#D2E0C1" transform="translate(262,268)"/>
<path d="M0 0 C-4.4043727 10.66836943 -17.30194159 16.95948047 -27 22 C-28.10021484 22.63421875 -28.10021484 22.63421875 -29.22265625 23.28125 C-31 24 -31 24 -34 23 C-32.42412109 22.14728516 -32.42412109 22.14728516 -30.81640625 21.27734375 C-20.54275805 15.65395046 -11.44682623 9.92980126 -3.41015625 1.28515625 C-2 0 -2 0 0 0 Z " fill="#87898B" transform="translate(322,324)"/>
<path d="M0 0 C2.49118953 3.7367843 2.2065226 5.74451819 2.125 10.1875 C2.10695313 11.45980469 2.08890625 12.73210937 2.0703125 14.04296875 C2.03550781 15.50669922 2.03550781 15.50669922 2 17 C4.97 17 7.94 17 11 17 C11 17.33 11 17.66 11 18 C6.71 18 2.42 18 -2 18 C-2 12.39 -2 6.78 -2 1 C-1.34 0.67 -0.68 0.34 0 0 Z " fill="#BDCDAC" transform="translate(298,216)"/>
<path d="M0 0 C0.33 0.66 0.66 1.32 1 2 C0.10717773 4.14794922 0.10717773 4.14794922 -1.31640625 6.8046875 C-1.83106445 7.77591553 -2.34572266 8.74714355 -2.87597656 9.74780273 C-3.4325293 10.77977783 -3.98908203 11.81175293 -4.5625 12.875 C-5.67390308 14.96706239 -6.78458704 17.05950699 -7.89453125 19.15234375 C-8.43158691 20.16022949 -8.96864258 21.16811523 -9.52197266 22.20654297 C-12.1068951 27.09202077 -14.56672042 32.03739033 -17 37 C-17.33 37 -17.66 37 -18 37 C-17.57378344 30.46467939 -15.09612955 25.7012063 -12 20 C-11.52046875 19.08605469 -11.0409375 18.17210937 -10.546875 17.23046875 C-7.36342267 11.24055186 -3.87563845 5.56607649 0 0 Z " fill="#517A1A" transform="translate(285,222)"/>
<path d="M0 0 C3.12116769 0.3094491 4.60973217 0.59034522 6.80859375 2.8984375 C15.92158752 16.75368462 15.92158752 16.75368462 18 22 C17.67 23.32 17.34 24.64 17 26 C13.7 20.06 10.4 14.12 7 8 C6.34 8 5.68 8 5 8 C4.67 6.68 4.34 5.36 4 4 C3.34 4 2.68 4 2 4 C2 3.34 2 2.68 2 2 C1.34 2 0.68 2 0 2 C0 1.34 0 0.68 0 0 Z " fill="#F1F2F3" transform="translate(319,206)"/>
<path d="M0 0 C0.74765625 0.42152344 1.4953125 0.84304688 2.265625 1.27734375 C3.25046875 1.82519531 4.2353125 2.37304688 5.25 2.9375 C6.22453125 3.48277344 7.1990625 4.02804687 8.203125 4.58984375 C10.53610409 5.76610835 12.45350762 6.52101691 15 7 C15.5722959 10.79861401 14.96855588 12.04789614 12.8125 15.33203125 C11.88716783 16.5019155 10.94920935 17.66190434 10 18.8125 C9.52304688 19.40998047 9.04609375 20.00746094 8.5546875 20.62304688 C7.38055765 22.09070918 6.19169197 23.54656139 5 25 C4 22 4 22 4.75 19.9375 C6 18 6 18 9 16 C9.33 15.01 9.66 14.02 10 13 C10.66 13 11.32 13 12 13 C12.33 11.68 12.66 10.36 13 9 C12.154375 8.773125 11.30875 8.54625 10.4375 8.3125 C6.49613144 6.80761382 3.11238141 4.87296745 0 2 C0 1.34 0 0.68 0 0 Z " fill="#ECF2DB" transform="translate(243,258)"/>
<path d="M0 0 C0.99 0.99 1.98 1.98 3 3 C2.02160156 3.50789062 1.04320312 4.01578125 0.03515625 4.5390625 C-7.2382187 8.34693733 -14.30849071 12.21257872 -21 17 C-21 16.01 -21 15.02 -21 14 C-20.34 14 -19.68 14 -19 14 C-18.896875 13.38125 -18.79375 12.7625 -18.6875 12.125 C-18 10 -18 10 -15 8 C-12.67793475 7.29508733 -10.34406932 6.62787571 -8 6 C-7.01 5.67 -6.02 5.34 -5 5 C-4.67 4.01 -4.34 3.02 -4 2 C-1.9375 0.8125 -1.9375 0.8125 0 0 Z " fill="#E4F3D0" transform="translate(292,206)"/>
<path d="M0 0 C3.94553249 3.68669437 6.87755216 7.50236816 9.75 12.0625 C10.14832031 12.67416016 10.54664063 13.28582031 10.95703125 13.91601562 C12.84090466 16.86954598 14.47609446 19.49856466 15 23 C15.99 23 16.98 23 18 23 C18 24.98 18 26.96 18 29 C14.97352724 26.29779218 13.1099519 23.5185142 11.14160156 19.99487305 C9.95489509 17.92118215 8.70272503 15.9035124 7.421875 13.88671875 C6.76445312 12.8512793 6.76445312 12.8512793 6.09375 11.79492188 C5.18454519 10.36900329 4.27301935 8.94456244 3.359375 7.52148438 C2.7096875 6.49571289 2.7096875 6.49571289 2.046875 5.44921875 C1.65338867 4.83393311 1.25990234 4.21864746 0.85449219 3.5847168 C0 2 0 2 0 0 Z " fill="#5A8320" transform="translate(242,233)"/>
<path d="M0 0 C2.55109573 0.47242514 4.04846371 1.03461694 6.1875 2.5625 C9.66994707 4.34241739 12.08336928 4.12627692 15.9140625 3.8125 C18 4 18 4 19.7109375 5.375 C21 7 21 7 22 9 C14.72974352 9.46405892 8.18845635 8.05443382 2.4375 3.375 C1.633125 2.59125 0.82875 1.8075 0 1 C0 0.67 0 0.34 0 0 Z " fill="#7A9651" transform="translate(239,254)"/>
<path d="M0 0 C1.65 0 3.3 0 5 0 C3.90489595 8.76083238 -1.55501087 15.39259747 -7 22 C-7.63671875 20.171875 -7.63671875 20.171875 -8 18 C-6.84238854 16.54471702 -5.67155786 15.09645968 -4.4140625 13.7265625 C-2.00381671 10.78366571 -0.59978462 7.43657438 1 4 C1.66 4 2.32 4 3 4 C3 3.01 3 2.02 3 1 C2.01 0.67 1.02 0.34 0 0 Z " fill="#779849" transform="translate(316,236)"/>
<path d="M0 0 C0.66 0.33 1.32 0.66 2 1 C2 1.66 2 2.32 2 3 C0.27656245 3.84511824 -1.45404053 4.67563354 -3.1875 5.5 C-4.15042969 5.9640625 -5.11335938 6.428125 -6.10546875 6.90625 C-8.98922693 7.99592921 -10.95354861 8.22277524 -14 8 C-14 7.34 -14 6.68 -14 6 C-12.68 5.67 -11.36 5.34 -10 5 C-10 4.34 -10 3.68 -10 3 C-3.375 -1.125 -3.375 -1.125 0 0 Z " fill="#4B7318" transform="translate(286,251)"/>
<path d="M0 0 C0 8.25 0 16.5 0 25 C-0.33 25 -0.66 25 -1 25 C-1.66 18.4 -2.32 11.8 -3 5 C-5.64 5 -8.28 5 -11 5 C-4.63636364 0 -4.63636364 0 0 0 Z " fill="#829F5D" transform="translate(296,209)"/>
<path d="M0 0 C0.99 0 1.98 0 3 0 C3 0.66 3 1.32 3 2 C3.99 2.33 4.98 2.66 6 3 C5.34 3 4.68 3 4 3 C4 3.66 4 4.32 4 5 C3.34 5 2.68 5 2 5 C2 10.94 2 16.88 2 23 C-0.13604308 19.79593538 -0.24208908 19.00399253 -0.1953125 15.33203125 C-0.18564453 13.99301758 -0.18564453 13.99301758 -0.17578125 12.62695312 C-0.15902344 11.69818359 -0.14226562 10.76941406 -0.125 9.8125 C-0.11597656 8.87212891 -0.10695312 7.93175781 -0.09765625 6.96289062 C-0.07409056 4.64167032 -0.04119116 2.32096356 0 0 Z " fill="#98B26D" transform="translate(233,223)"/>
<path d="M0 0 C0 0.33 0 0.66 0 1 C-1.93939453 1.05607422 -1.93939453 1.05607422 -3.91796875 1.11328125 C-13.05470615 1.43795923 -21.620915 1.94575163 -30.46875 4.37890625 C-33 5 -33 5 -37 5 C-28.4714308 -3.5285692 -11.02665476 -1.04746143 0 0 Z " fill="#DADADA" transform="translate(260,177)"/>
<path d="M0 0 C0 0.66 0 1.32 0 2 C-0.66 2 -1.32 2 -2 2 C-2.33 2.99 -2.66 3.98 -3 5 C-5.33249756 6.97908884 -7.00082192 8.01665297 -10.109375 7.96484375 C-12.08350056 7.71632794 -14.04399857 7.36467823 -16 7 C-12.55549263 4.70366176 -10.06187717 4.45983515 -6 4 C-6 3.01 -6 2.02 -6 1 C-6.66 0.67 -7.32 0.34 -8 0 C-4.71303767 -0.79953138 -3.28976808 -1.09658936 0 0 Z " fill="#7C9F4C" transform="translate(280,259)"/>
<path d="M0 0 C2 3 2 3 1.7578125 5.69921875 C1.54898437 6.68535156 1.34015625 7.67148438 1.125 8.6875 C0.92132813 9.68136719 0.71765625 10.67523438 0.5078125 11.69921875 C0.34023438 12.45847656 0.17265625 13.21773437 0 14 C-0.78375 13.814375 -1.5675 13.62875 -2.375 13.4375 C-4.97089775 12.74037734 -4.97089775 12.74037734 -7 14 C-4.66666667 9.33333333 -2.33333333 4.66666667 0 0 Z " fill="#B5C5A3" transform="translate(320,239)"/>
<path d="M0 0 C0.66 0.33 1.32 0.66 2 1 C1.57589844 1.62003906 1.15179688 2.24007812 0.71484375 2.87890625 C-4.38866598 10.58464511 -8.26137494 18.57957091 -12 27 C-13.15605905 23.54087688 -13.00820641 23.02025551 -11.5234375 19.35546875 C-10.81964998 17.95984482 -10.10297866 16.57065946 -9.375 15.1875 C-9.03082031 14.50107422 -8.68664062 13.81464844 -8.33203125 13.10742188 C-5.92682628 8.41682841 -3.14875302 4.225958 0 0 Z " fill="#B4B5B5" transform="translate(181,212)"/>
<path d="M0 0 C-1 2 -1 2 -3.984375 3.03515625 C-5.22703125 3.37417969 -6.4696875 3.71320313 -7.75 4.0625 C-9.59851563 4.57490234 -9.59851563 4.57490234 -11.484375 5.09765625 C-14.31678455 5.82464137 -17.12601557 6.4679838 -20 7 C-19.67 6.01 -19.34 5.02 -19 4 C-12.9338493 1.13914975 -6.69913606 -0.60901237 0 0 Z " fill="#A5A5A8" transform="translate(235,174)"/>
<path d="M0 0 C2.65197185 2.65197185 3.584501 5.55356766 5 9 C5.33 9.66 5.66 10.32 6 11 C5.39239518 13.3494053 4.72870472 15.68529088 4 18 C2.19001308 14.72779658 1.2241782 11.49502953 0.3125 7.875 C0.04050781 6.82054687 -0.23148437 5.76609375 -0.51171875 4.6796875 C-1 2 -1 2 0 0 Z " fill="#E1E2E3" transform="translate(337,230)"/>
<path d="M0 0 C0.66 0.99 1.32 1.98 2 3 C-0.64 8.28 -3.28 13.56 -6 19 C-7.12642186 15.62073443 -6.96344705 15.27071722 -5.56640625 12.20703125 C-5.0878418 11.1387207 -5.0878418 11.1387207 -4.59960938 10.04882812 C-4.25736328 9.31083984 -3.91511719 8.57285156 -3.5625 7.8125 C-3.22412109 7.06291016 -2.88574219 6.31332031 -2.53710938 5.54101562 C-1.7000589 3.69007302 -0.85114596 1.84450334 0 0 Z " fill="#E2E2E4" transform="translate(173,219)"/>
<path d="M0 0 C-5.56803631 3.71202421 -13.53488367 6.7659466 -20.3125 5.75 C-21.199375 5.5025 -22.08625 5.255 -23 5 C-23 4.67 -23 4.34 -23 4 C-21.97519531 3.80664062 -20.95039063 3.61328125 -19.89453125 3.4140625 C-18.53380399 3.15130137 -17.17312967 2.88826602 -15.8125 2.625 C-14.80219727 2.43550781 -14.80219727 2.43550781 -13.77148438 2.2421875 C-10.77421191 1.65735385 -8.02426804 1.0100863 -5.19921875 -0.1640625 C-3 -1 -3 -1 0 0 Z " fill="#9B9BA0" transform="translate(289,348)"/>
<path d="M0 0 C4.24124386 3.81711948 5.87919974 6.80385123 6.1953125 12.55078125 C6.17210937 13.79214844 6.14890625 15.03351563 6.125 16.3125 C6.10695313 17.56675781 6.08890625 18.82101563 6.0703125 20.11328125 C6.04710937 21.06589844 6.02390625 22.01851563 6 23 C5.67 23 5.34 23 5 23 C4.67 19.04 4.34 15.08 4 11 C3.34 11 2.68 11 2 11 C1.34 7.37 0.68 3.74 0 0 Z " fill="#92AE62" transform="translate(256,236)"/>
<path d="M0 0 C6.75 -0.125 6.75 -0.125 9 1 C9 1.66 9 2.32 9 3 C11.64 3.33 14.28 3.66 17 4 C17.33 5.65 17.66 7.3 18 9 C9.09 5.04 9.09 5.04 0 1 C0 0.67 0 0.34 0 0 Z " fill="#DBECBF" transform="translate(236,224)"/>
<path d="M0 0 C0.66 0.99 1.32 1.98 2 3 C0.89966185 4.60679516 -0.20542664 6.21033793 -1.3125 7.8125 C-1.92738281 8.70582031 -2.54226562 9.59914062 -3.17578125 10.51953125 C-4.67715037 12.56100746 -6.14785401 14.28462787 -8 16 C-8.33 15.34 -8.66 14.68 -9 14 C-7.63671875 11.50390625 -7.63671875 11.50390625 -5.6875 8.5625 C-5.05199219 7.59441406 -4.41648438 6.62632812 -3.76171875 5.62890625 C-3.18035156 4.76136719 -2.59898437 3.89382812 -2 3 C-1.34 2.01 -0.68 1.02 0 0 Z " fill="#A2A4A5" transform="translate(179,206)"/>
<path d="M0 0 C1.89575251 -0.02721176 3.79161979 -0.04649136 5.6875 -0.0625 C6.74324219 -0.07410156 7.79898437 -0.08570313 8.88671875 -0.09765625 C11.72410262 -0.00865425 14.2438919 0.35060162 17 1 C16.67 1.66 16.34 2.32 16 3 C10.26157749 3.20413361 5.39460953 3.27141454 0 1 C0 0.67 0 0.34 0 0 Z " fill="#C4CDBC" transform="translate(282,294)"/>
<path d="M0 0 C1.98 0.66 3.96 1.32 6 2 C6 2.99 6 3.98 6 5 C2.7 5.66 -0.6 6.32 -4 7 C-2.68 4.69 -1.36 2.38 0 0 Z " fill="#D2E9B3" transform="translate(268,258)"/>
<path d="M0 0 C0.66 0 1.32 0 2 0 C1.7452486 1.31571603 1.47065859 2.62760376 1.1875 3.9375 C0.96126953 5.03384766 0.96126953 5.03384766 0.73046875 6.15234375 C0.48941406 6.76207031 0.24835938 7.37179688 0 8 C-0.99 8.33 -1.98 8.66 -3 9 C-3.33 9.99 -3.66 10.98 -4 12 C-4.99 11.67 -5.98 11.34 -7 11 C-5.68822142 8.0737247 -4.24710766 6.24710766 -2 4 C-0.82425289 1.90010348 -0.82425289 1.90010348 0 0 Z " fill="#C4C6C2" transform="translate(320,248)"/>
<path d="M0 0 C-0.80824219 0.32613281 -1.61648437 0.65226563 -2.44921875 0.98828125 C-3.51785156 1.42527344 -4.58648437 1.86226562 -5.6875 2.3125 C-6.74324219 2.74175781 -7.79898438 3.17101562 -8.88671875 3.61328125 C-11.7537809 4.89032901 -14.35090386 6.32404122 -17 8 C-17.66 7.34 -18.32 6.68 -19 6 C-17.25318707 5.01515892 -15.5024149 4.03733813 -13.75 3.0625 C-12.28820312 2.24458984 -12.28820312 2.24458984 -10.796875 1.41015625 C-6.73305088 -0.63878301 -4.38853093 -1.41059923 0 0 Z " fill="#B2B2B3" transform="translate(224,183)"/>
<path d="M0 0 C0.66 0.33 1.32 0.66 2 1 C2 5.62 2 10.24 2 15 C1.67 15 1.34 15 1 15 C1 13.35 1 11.7 1 10 C0.01 10 -0.98 10 -2 10 C-1.85950482 8.52031676 -1.71245174 7.04125484 -1.5625 5.5625 C-1.48128906 4.73878906 -1.40007812 3.91507813 -1.31640625 3.06640625 C-1 1 -1 1 0 0 Z " fill="#6E9139" transform="translate(259,246)"/>
<path d="M0 0 C0.33 0.99 0.66 1.98 1 3 C-0.28716647 4.00578589 -1.57988658 5.00446798 -2.875 6 C-3.95394531 6.8353125 -3.95394531 6.8353125 -5.0546875 7.6875 C-7 9 -7 9 -9 9 C-9 8.34 -9 7.68 -9 7 C-8.34 6.67 -7.68 6.34 -7 6 C-6.5359375 5.0409375 -6.5359375 5.0409375 -6.0625 4.0625 C-4.65450229 1.32932797 -3.16377679 0 0 0 Z " fill="#7EA643" transform="translate(285,214)"/>
<path d="M0 0 C0.66 0.66 1.32 1.32 2 2 C0.74131097 3.84169226 -0.53233526 5.67317031 -1.8125 7.5 C-2.52019531 8.5209375 -3.22789062 9.541875 -3.95703125 10.59375 C-4.63121094 11.3878125 -5.30539062 12.181875 -6 13 C-6.99 13 -7.98 13 -9 13 C-8.60167969 12.48050781 -8.20335937 11.96101563 -7.79296875 11.42578125 C-4.97822677 7.72073158 -2.28614026 4.06424935 0 0 Z " fill="#9E9EA0" transform="translate(330,311)"/>
<path d="M0 0 C2.96175123 0.61277612 4.38058783 1.25372522 7 3 C7 3.99 7 4.98 7 6 C7.66 6 8.32 6 9 6 C9.33 6.99 9.66 7.98 10 9 C4.98709528 7.56774151 3.01961382 5.05490999 0 1 C0 0.67 0 0.34 0 0 Z " fill="#87A659" transform="translate(269,282)"/>
<path d="M0 0 C1.98073365 0.280828 3.95958448 0.57496614 5.9375 0.875 C7.59072266 1.11863281 7.59072266 1.11863281 9.27734375 1.3671875 C10.17582031 1.57601563 11.07429688 1.78484375 12 2 C12.33 2.66 12.66 3.32 13 4 C11.68 5.32 10.36 6.64 9 8 C9 6.68 9 5.36 9 4 C8.071875 3.896875 7.14375 3.79375 6.1875 3.6875 C2.85034764 2.96772204 2.16813468 2.42857128 0 0 Z " fill="#C4D4AA" transform="translate(249,261)"/>
<path d="M0 0 C0.33 0 0.66 0 1 0 C1.33 7.26 1.66 14.52 2 22 C1.01 22 0.02 22 -1 22 C-1.38218767 20.34385343 -1.71395102 18.67542976 -2 17 C-1.67 16.67 -1.34 16.34 -1 16 C-0.76321284 13.30764224 -0.57801975 10.63501844 -0.4375 7.9375 C-0.39431641 7.17888672 -0.35113281 6.42027344 -0.30664062 5.63867188 C-0.20026367 3.75934562 -0.09960066 1.87969756 0 0 Z " fill="#C0D99D" transform="translate(264,234)"/>
<path d="M0 0 C1.09658936 3.28976808 0.79953138 4.71303767 0 8 C0.99 8.33 1.98 8.66 3 9 C2.67 9.66 2.34 10.32 2 11 C0.125 10.8125 0.125 10.8125 -2 10 C-3.375 7.6875 -3.375 7.6875 -4 5 C-3.25 2.75 -3.25 2.75 -2 1 C-1.34 0.67 -0.68 0.34 0 0 Z " fill="#F1F9E3" transform="translate(246,281)"/>
<path d="M0 0 C-0.33 1.32 -0.66 2.64 -1 4 C-3.31 4 -5.62 4 -8 4 C-8.33 3.34 -8.66 2.68 -9 2 C-8.34 2 -7.68 2 -7 2 C-6.67 1.34 -6.34 0.68 -6 0 C-2.49056604 -1.24528302 -2.49056604 -1.24528302 0 0 Z " fill="#709D34" transform="translate(256,255)"/>
<path d="M0 0 C0.33 0.66 0.66 1.32 1 2 C1.66 2.33 2.32 2.66 3 3 C3 3.66 3 4.32 3 5 C3.66 5.33 4.32 5.66 5 6 C4.67 7.32 4.34 8.64 4 10 C4 9.01 4 8.02 4 7 C2.68 7 1.36 7 0 7 C0 5.68 0 4.36 0 3 C-2.97 2.505 -2.97 2.505 -6 2 C-6 1.67 -6 1.34 -6 1 C-4.02 0.67 -2.04 0.34 0 0 Z " fill="#F1F7E7" transform="translate(322,232)"/>
<path d="M0 0 C-1.40844718 3.21524305 -3.10344786 5.32183868 -5.625 7.75 C-6.57246094 8.67039063 -6.57246094 8.67039063 -7.5390625 9.609375 C-8.02117187 10.06828125 -8.50328125 10.5271875 -9 11 C-9.33 10.01 -9.66 9.02 -10 8 C-8.71451591 6.66070495 -7.42141845 5.32871357 -6.125 4 C-5.04605469 2.88625 -5.04605469 2.88625 -3.9453125 1.75 C-2 0 -2 0 0 0 Z " fill="#EFF0F2" transform="translate(194,196)"/>
<path d="M0 0 C4.25899941 0.81903835 6.17519452 2.7043936 9 6 C9 6.99 9 7.98 9 9 C4.44984107 7.48328036 2.49942736 3.83108947 0 0 Z " fill="#E4E5E6" transform="translate(303,190)"/>
<path d="M0 0 C0 0.33 0 0.66 0 1 C-2.10277123 1.22197585 -4.20732302 1.42713637 -6.3125 1.625 C-7.48425781 1.74101562 -8.65601563 1.85703125 -9.86328125 1.9765625 C-13 2 -13 2 -16 0 C-10.49983036 -1.30267176 -5.52967941 -0.71033431 0 0 Z " fill="#B0B1B2" transform="translate(248,173)"/>
<path d="M0 0 C0.66 0 1.32 0 2 0 C1.38801624 3.43950364 0.07941153 5.51564485 -2.0625 8.25 C-2.61035156 8.95640625 -3.15820312 9.6628125 -3.72265625 10.390625 C-4.14417969 10.92171875 -4.56570312 11.4528125 -5 12 C-6 9 -6 9 -5.25 6.9375 C-4 5 -4 5 -1 3 C-0.67 2.01 -0.34 1.02 0 0 Z " fill="#E8F3D1" transform="translate(253,271)"/>
<path d="M0 0 C0 3.59857954 -0.95830515 5.09451118 -3 8 C-3.66 8 -4.32 8 -5 8 C-5.66 9.65 -6.32 11.3 -7 13 C-7.33 12.34 -7.66 11.68 -8 11 C-7.109375 8.90625 -7.109375 8.90625 -5.75 6.5 C-5.31171875 5.7059375 -4.8734375 4.911875 -4.421875 4.09375 C-3 2 -3 2 0 0 Z " fill="#E1EED1" transform="translate(258,275)"/>
<path d="M0 0 C0.53625 0.37125 1.0725 0.7425 1.625 1.125 C1.625 1.455 1.625 1.785 1.625 2.125 C-2.91201494 3.57684478 -6.55561476 4.36009196 -11.375 4.125 C-8.46071529 0.56309646 -4.51789288 -1.66448685 0 0 Z " fill="#F3F3F4" transform="translate(228.375,177.875)"/>
<path d="M0 0 C8.57142857 1.85714286 8.57142857 1.85714286 12 5 C8.23375329 6.25541557 6.62811066 5.37061958 3 4 C3 3.34 3 2.68 3 2 C2.01 2 1.02 2 0 2 C0 1.34 0 0.68 0 0 Z " fill="#5E8527" transform="translate(262,265)"/>
<path d="M0 0 C3.48330216 0.64505596 6.09432866 1.98217268 9 4 C9 4.66 9 5.32 9 6 C9.99 6.33 10.98 6.66 12 7 C6.376883 6.59834879 3.95408944 4.76579946 0 1 C0 0.67 0 0.34 0 0 Z " fill="#88A661" transform="translate(239,254)"/>
<path d="M0 0 C2.97 0.99 5.94 1.98 9 3 C8.67 4.98 8.34 6.96 8 9 C2.25 4.5 2.25 4.5 0 0 Z " fill="#729F2E" transform="translate(238,228)"/>
<path d="M0 0 C0.99 0.33 1.98 0.66 3 1 C2.34 1 1.68 1 1 1 C1 1.66 1 2.32 1 3 C0.34 3 -0.32 3 -1 3 C-1.0825 3.61875 -1.165 4.2375 -1.25 4.875 C-2 7 -2 7 -4.0625 8.25 C-4.701875 8.4975 -5.34125 8.745 -6 9 C-6 8.01 -6 7.02 -6 6 C-5.34 6 -4.68 6 -4 6 C-3.896875 5.38125 -3.79375 4.7625 -3.6875 4.125 C-3 2 -3 2 0 0 Z " fill="#EEF9DD" transform="translate(277,214)"/>
<path d="M0 0 C5.12583611 -0.10251672 9.94997778 -0.03590199 15 1 C11.73088005 2.98128482 9.58538418 3.17354387 5.8125 2.75 C4.93207031 2.66234375 4.05164063 2.5746875 3.14453125 2.484375 C2.43683594 2.32453125 1.72914063 2.1646875 1 2 C0.67 1.34 0.34 0.68 0 0 Z " fill="#A4A4A8" transform="translate(259,172)"/>
<path d="M0 0 C-1.26538369 0.84158536 -2.53753779 1.67299748 -3.8125 2.5 C-4.87404297 3.19609375 -4.87404297 3.19609375 -5.95703125 3.90625 C-8 5 -8 5 -11 5 C-11 4.34 -11 3.68 -11 3 C-10.01 3 -9.02 3 -8 3 C-8 2.34 -8 1.68 -8 1 C-4.85571151 -0.9090323 -3.47925125 -1.04523725 0 0 Z " fill="#789A51" transform="translate(308,259)"/>
<path d="M0 0 C3.35250701 0.57575664 4.93818629 1.59306263 7.25 4.0625 C8.03117187 4.88427734 8.03117187 4.88427734 8.828125 5.72265625 C9.21484375 6.14417969 9.6015625 6.56570312 10 7 C9.67 7.66 9.34 8.32 9 9 C7.68412059 7.87895467 6.37239647 6.75303035 5.0625 5.625 C4.33160156 4.99851563 3.60070312 4.37203125 2.84765625 3.7265625 C1 2 1 2 0 0 Z " fill="#95989C" transform="translate(309,192)"/>
<path d="M0 0 C0.99 0.33 1.98 0.66 3 1 C0.24479785 3.95929119 -2.46627288 6.03681826 -6 8 C-6 7.01 -6 6.02 -6 5 C-3.1875 2.25 -3.1875 2.25 0 0 Z " fill="#99999C" transform="translate(198,188)"/>
<path d="M0 0 C0 0.66 0 1.32 0 2 C-0.66 2 -1.32 2 -2 2 C-2 2.66 -2 3.32 -2 4 C-3.32 4 -4.64 4 -6 4 C-6 3.01 -6 2.02 -6 1 C-6.66 0.67 -7.32 0.34 -8 0 C-4.71303767 -0.79953138 -3.28976808 -1.09658936 0 0 Z " fill="#749C42" transform="translate(280,259)"/>
<path d="M0 0 C0.66 0 1.32 0 2 0 C4.1519437 3.22791555 4.20086443 4.28400809 4 8 C3.01 8.495 3.01 8.495 2 9 C0.14223235 5.86501708 -0.20140476 3.62528568 0 0 Z " fill="#82A24B" transform="translate(235,243)"/>
<path d="M0 0 C2.6486859 3.19668988 4.93992341 6.39486597 7 10 C6.01 10 5.02 10 4 10 C4 9.34 4 8.68 4 8 C3.01 7.67 2.02 7.34 1 7 C0.67 4.69 0.34 2.38 0 0 Z " fill="#E3F2CC" transform="translate(266,278)"/>
<path d="M0 0 C0.33 0.66 0.66 1.32 1 2 C1.99 2 2.98 2 4 2 C3.67 2.66 3.34 3.32 3 4 C2.34 4 1.68 4 1 4 C-0.37310707 5.29233607 -1.71034824 6.62437146 -3 8 C-3.66 7.34 -4.32 6.68 -5 6 C-3.35 4.02 -1.7 2.04 0 0 Z " fill="#82945F" transform="translate(261,265)"/>
<path d="M0 0 C3.33557632 2.9905167 5.15083921 5.93184627 7 10 C6.01 10.495 6.01 10.495 5 11 C4.15841464 9.73461631 3.32700252 8.46246221 2.5 7.1875 C1.80390625 6.12595703 1.80390625 6.12595703 1.09375 5.04296875 C0 3 0 3 0 0 Z " fill="#A1A1A3" transform="translate(328,211)"/>
<path d="M0 0 C2.97 0.495 2.97 0.495 6 1 C6.33 2.32 6.66 3.64 7 5 C4.625 4.75 4.625 4.75 2 4 C0.6875 1.9375 0.6875 1.9375 0 0 Z " fill="#F1F4F2" transform="translate(176,312)"/>
<path d="M0 0 C1.98 0.495 1.98 0.495 4 1 C3.67 2.32 3.34 3.64 3 5 C1.68 5 0.36 5 -1 5 C-0.67 3.35 -0.34 1.7 0 0 Z " fill="#6E824B" transform="translate(246,284)"/>
<path d="M0 0 C2.97 1.65 5.94 3.3 9 5 C9 5.66 9 6.32 9 7 C4.56909529 5.79157144 2.01887244 4.48331435 -1 1 C-0.67 0.67 -0.34 0.34 0 0 Z " fill="#609022" transform="translate(289,278)"/>
<path d="M0 0 C0.99 0.33 1.98 0.66 3 1 C3.33 3.97 3.66 6.94 4 10 C1.16625119 6.79663178 0.4794463 4.21912747 0 0 Z " fill="#86A758" transform="translate(265,272)"/>
<path d="M0 0 C3.63 1.98 7.26 3.96 11 6 C7 7 7 7 5.078125 6.07421875 C4.47484375 5.61660156 3.8715625 5.15898437 3.25 4.6875 C2.63640625 4.23761719 2.0228125 3.78773438 1.390625 3.32421875 C0.93171875 2.88722656 0.4728125 2.45023437 0 2 C0 1.34 0 0.68 0 0 Z " fill="#D6E3C9" transform="translate(243,258)"/>
<path d="M0 0 C0.66 0.99 1.32 1.98 2 3 C0.35 4.98 -1.3 6.96 -3 9 C-3.66 8.34 -4.32 7.68 -5 7 C-3.35 4.69 -1.7 2.38 0 0 Z " fill="#E5E6E8" transform="translate(326,313)"/>
<path d="M0 0 C5.75 0.75 5.75 0.75 8 3 C2.25 4.125 2.25 4.125 0 3 C0 2.01 0 1.02 0 0 Z " fill="#709A37" transform="translate(265,269)"/>
<path d="M0 0 C1 3 1 3 0.22265625 4.82421875 C-0.8515625 6.54947917 -1.92578125 8.27473958 -3 10 C-4 7 -4 7 -2.625 3.875 C-1 1 -1 1 0 0 Z " fill="#ECEDEE" transform="translate(170,228)"/>
<path d="M0 0 C2.86299506 2.86299506 2.99421225 4.65852284 3.0625 8.6875 C3.041875 9.780625 3.02125 10.87375 3 12 C0.79680323 7.59360646 -0.10924981 5.02549129 0 0 Z " fill="#EEEFF0" transform="translate(163,248)"/>
<path d="M0 0 C4.875 0.875 4.875 0.875 6 2 C6.04063832 3.66617115 6.042721 5.33388095 6 7 C1.125 2.25 1.125 2.25 0 0 Z " fill="#E8F4CE" transform="translate(254,233)"/>
<path d="M0 0 C1.5 1.25 1.5 1.25 3 3 C3 4.32 3 5.64 3 7 C1.68 7 0.36 7 -1 7 C-0.67 4.69 -0.34 2.38 0 0 Z " fill="#8DA372" transform="translate(305,285)"/>
<path d="M0 0 C1 3 1 3 0.0625 5.1875 C-0.4634375 6.0846875 -0.4634375 6.0846875 -1 7 C-2.32 6.67 -3.64 6.34 -5 6 C-3.35 4.02 -1.7 2.04 0 0 Z " fill="#B7CAA3" transform="translate(312,253)"/>
<path d="M0 0 C2.25245881 2.68841859 3.88213958 4.64641875 5 8 C3.68 8 2.36 8 1 8 C0.67 5.36 0.34 2.72 0 0 Z " fill="#E4F3CF" transform="translate(235,248)"/>
<path d="M0 0 C0.33 0.66 0.66 1.32 1 2 C3.52733235 2.65555119 3.52733235 2.65555119 6 3 C2.86501708 4.85776765 0.62528568 5.20140476 -3 5 C-2.67 4.34 -2.34 3.68 -2 3 C-1.34 3 -0.68 3 0 3 C0 2.01 0 1.02 0 0 Z " fill="#E2E2E4" transform="translate(214,179)"/>
<path d="M0 0 C-1.15173355 2.46800047 -2.04783565 4.04783565 -4 6 C-4.99 5.67 -5.98 5.34 -7 5 C-2.25 0 -2.25 0 0 0 Z " fill="#868688" transform="translate(322,324)"/>
<path d="M0 0 C0.33 0.99 0.66 1.98 1 3 C0.01 3.99 -0.98 4.98 -2 6 C-2.33 5.34 -2.66 4.68 -3 4 C-3.99 3.67 -4.98 3.34 -6 3 C-5.01 3 -4.02 3 -3 3 C-2.67 2.34 -2.34 1.68 -2 1 C-1.34 0.67 -0.68 0.34 0 0 Z " fill="#CBD4BE" transform="translate(252,286)"/>
</svg>
