<svg id="svg" version="1.1" xmlns="http://www.w3.org/2000/svg" xmlns:xlink="http://www.w3.org/1999/xlink" width="400" height="400" viewBox="0, 0, 400,400"><g id="svgg"><path id="path0" d="M233.000 168.934 C 225.797 171.772,217.161 178.394,214.532 183.096 C 212.048 187.536,211.049 197.205,212.615 201.643 C 212.954 202.602,213.255 204.335,213.286 205.494 C 213.316 206.652,213.372 207.600,213.409 207.600 C 213.447 207.600,213.893 207.240,214.400 206.800 C 215.380 205.950,216.400 205.742,216.400 206.392 C 216.400 206.607,217.131 207.157,218.025 207.613 C 219.113 208.168,219.609 208.667,219.525 209.121 C 219.238 210.680,212.392 212.756,211.094 211.678 C 210.417 211.116,210.007 211.421,208.510 213.600 C 207.829 214.590,206.491 216.317,205.536 217.438 C 204.581 218.559,203.219 220.269,202.509 221.238 C 201.799 222.207,200.141 224.350,198.824 226.000 C 196.353 229.096,196.006 229.975,196.949 230.758 C 197.942 231.582,198.784 230.759,200.660 227.127 C 203.554 221.522,209.508 213.600,210.825 213.600 C 211.202 213.600,212.000 215.535,212.000 216.449 C 212.000 222.619,219.534 231.810,225.975 233.499 C 231.100 234.842,245.200 233.582,245.200 231.781 C 245.200 230.266,239.132 219.759,236.171 216.146 C 233.454 212.833,233.507 212.542,237.021 211.429 C 245.690 208.685,256.400 196.618,256.400 189.595 C 256.400 188.433,247.263 187.081,241.351 187.368 C 236.580 187.600,236.585 187.605,236.670 183.315 C 236.786 177.453,236.018 169.481,235.281 168.900 C 234.543 168.318,234.564 168.317,233.000 168.934 M187.728 180.500 C 187.553 180.775,187.344 183.704,187.264 187.008 C 186.947 200.097,192.161 207.115,204.000 209.534 C 208.653 210.484,208.344 210.798,208.863 204.588 C 209.828 193.028,205.529 186.644,193.552 181.852 C 188.502 179.832,188.199 179.762,187.728 180.500 M254.975 263.300 L 253.800 264.600 255.100 263.425 C 256.312 262.330,256.584 262.000,256.275 262.000 C 256.206 262.000,255.621 262.585,254.975 263.300 M249.660 267.442 C 248.931 268.266,249.400 268.657,250.181 267.876 C 250.521 267.536,250.800 267.154,250.800 267.029 C 250.800 266.609,250.206 266.824,249.660 267.442 M162.406 272.671 C 162.418 273.284,163.155 274.178,163.426 273.907 C 163.574 273.759,163.404 273.347,163.048 272.990 C 162.691 272.634,162.403 272.491,162.406 272.671 M237.768 275.340 C 237.629 275.701,237.367 275.904,237.186 275.791 C 237.004 275.679,236.742 275.770,236.604 275.993 C 236.466 276.217,236.704 276.400,237.134 276.400 C 237.872 276.400,238.649 275.316,238.219 274.885 C 238.109 274.775,237.906 274.980,237.768 275.340 M219.400 282.400 C 219.264 282.620,219.534 282.800,220.000 282.800 C 220.466 282.800,220.736 282.620,220.600 282.400 C 220.464 282.180,220.194 282.000,220.000 282.000 C 219.806 282.000,219.536 282.180,219.400 282.400 M186.195 283.209 C 186.040 283.458,186.409 283.582,187.143 283.526 C 187.804 283.475,188.256 283.291,188.149 283.117 C 187.867 282.662,186.493 282.726,186.195 283.209 M201.200 284.800 C 201.200 285.020,201.920 285.200,202.800 285.200 C 203.680 285.200,204.400 285.020,204.400 284.800 C 204.400 284.580,203.680 284.400,202.800 284.400 C 201.920 284.400,201.200 284.580,201.200 284.800 " stroke="none" fill="#729d37" fill-rule="evenodd"></path><path id="path1" d="M199.900 137.096 C 201.275 137.174,203.525 137.174,204.900 137.096 C 206.275 137.018,205.150 136.954,202.400 136.954 C 199.650 136.954,198.525 137.018,199.900 137.096 M186.200 138.400 C 185.429 138.731,185.431 138.745,186.276 138.772 C 186.758 138.787,187.264 138.620,187.400 138.400 C 187.692 137.927,187.301 137.927,186.200 138.400 M217.400 138.400 C 217.536 138.620,218.042 138.787,218.524 138.772 C 219.369 138.745,219.371 138.731,218.600 138.400 C 217.499 137.927,217.108 137.927,217.400 138.400 M192.000 139.586 C 191.670 139.807,190.693 139.991,189.828 139.994 C 188.964 139.997,187.704 140.168,187.028 140.373 C 186.353 140.578,184.990 140.956,184.000 141.212 C 183.010 141.468,181.887 141.840,181.505 142.039 C 181.123 142.238,180.459 142.400,180.029 142.400 C 179.599 142.400,179.136 142.580,179.000 142.800 C 178.864 143.020,178.324 143.200,177.800 143.200 C 177.276 143.200,176.736 143.380,176.600 143.600 C 176.464 143.820,176.047 144.000,175.674 144.000 C 170.724 144.000,151.574 157.982,145.600 165.958 C 145.050 166.693,144.139 167.857,143.575 168.547 C 141.207 171.441,138.225 176.623,136.237 181.300 C 135.887 182.125,135.312 183.475,134.959 184.300 C 133.791 187.036,133.656 187.388,133.171 189.000 C 132.906 189.880,132.548 190.960,132.375 191.400 C 132.018 192.307,131.701 193.707,131.196 196.600 C 131.004 197.700,130.652 199.590,130.414 200.800 C 129.206 206.946,130.063 222.013,132.018 229.000 C 132.264 229.880,132.562 231.097,132.679 231.705 C 132.796 232.313,133.051 232.908,133.246 233.029 C 133.441 233.149,133.600 233.599,133.600 234.028 C 133.600 235.134,137.378 243.338,139.829 247.554 C 149.238 263.740,167.001 276.958,184.400 280.723 C 192.469 282.469,193.728 282.600,202.200 282.578 C 215.924 282.542,224.802 280.374,236.610 274.175 C 243.191 270.720,246.065 268.679,252.819 262.664 C 259.162 257.015,266.754 245.839,270.118 237.200 C 270.332 236.650,270.645 235.840,270.813 235.400 C 271.628 233.272,272.409 230.529,273.150 227.200 C 273.370 226.210,273.661 224.950,273.795 224.400 C 276.165 214.684,275.076 199.731,271.128 187.800 C 267.871 177.954,261.320 167.746,253.228 159.904 C 248.341 155.169,242.407 150.400,241.400 150.400 C 241.259 150.400,240.359 149.860,239.400 149.200 C 238.441 148.540,237.561 148.000,237.446 148.000 C 237.330 148.000,236.372 147.494,235.318 146.876 C 234.263 146.258,232.140 145.253,230.600 144.643 C 229.060 144.032,227.170 143.259,226.400 142.926 C 223.926 141.853,223.433 141.682,221.600 141.262 C 220.610 141.035,219.350 140.736,218.800 140.598 C 214.470 139.511,193.305 138.712,192.000 139.586 M215.039 141.407 C 221.233 142.469,231.579 145.991,234.399 147.999 C 235.017 148.440,235.634 148.800,235.769 148.800 C 235.904 148.800,237.200 149.520,238.648 150.400 C 240.097 151.280,241.416 152.000,241.579 152.000 C 241.937 152.000,247.040 156.239,249.726 158.769 C 252.373 161.260,251.418 161.298,248.235 158.827 C 234.345 148.048,219.979 142.805,202.500 142.138 C 196.157 141.895,194.207 141.530,196.500 141.012 C 199.693 140.292,209.783 140.507,215.039 141.407 M181.088 145.063 C 181.163 145.290,179.555 146.147,177.513 146.967 C 172.374 149.032,166.546 151.887,164.400 153.392 C 163.410 154.086,161.610 155.346,160.400 156.191 C 156.858 158.666,150.887 164.345,148.195 167.800 C 143.602 173.695,141.318 177.515,137.011 186.500 C 135.210 190.257,134.400 191.234,134.400 189.649 C 134.400 188.700,134.833 187.638,138.510 179.569 C 143.444 168.742,156.741 154.743,166.600 149.996 C 167.260 149.678,168.498 148.992,169.351 148.472 C 173.223 146.109,180.711 143.934,181.088 145.063 M152.575 155.300 L 151.400 156.600 152.700 155.425 C 153.415 154.779,154.000 154.194,154.000 154.125 C 154.000 153.816,153.670 154.088,152.575 155.300 M147.381 160.500 L 145.800 162.200 147.500 160.619 C 149.081 159.148,149.384 158.800,149.081 158.800 C 149.016 158.800,148.251 159.565,147.381 160.500 M255.600 159.725 C 255.600 159.794,256.185 160.379,256.900 161.025 L 258.200 162.200 257.025 160.900 C 255.930 159.688,255.600 159.416,255.600 159.725 M179.024 163.387 C 179.451 163.710,180.155 163.980,180.589 163.987 C 181.301 163.999,181.281 164.068,180.389 164.697 C 179.845 165.080,179.259 165.348,179.088 165.293 C 178.916 165.237,178.376 165.569,177.888 166.030 C 177.399 166.491,176.190 167.345,175.200 167.928 C 172.463 169.540,166.403 175.197,163.340 179.000 C 150.924 194.413,148.534 215.740,157.250 233.354 C 167.739 254.553,190.708 265.815,213.621 260.996 C 221.217 259.398,230.474 255.106,234.966 251.100 C 235.398 250.715,235.864 250.400,236.003 250.400 C 236.385 250.400,243.142 243.499,243.920 242.315 C 244.294 241.745,245.123 240.623,245.762 239.821 C 247.464 237.684,246.878 237.341,242.610 237.975 C 229.088 239.987,217.206 234.050,212.991 223.174 C 211.804 220.111,211.542 220.074,209.576 222.695 C 206.948 226.196,205.108 228.764,203.413 231.293 C 201.657 233.913,200.567 234.494,199.614 233.317 C 199.264 232.885,198.444 232.397,197.791 232.234 C 194.615 231.436,194.773 229.818,198.500 224.944 C 200.095 222.858,201.940 220.386,202.600 219.452 C 203.260 218.517,204.278 217.244,204.862 216.622 C 207.540 213.769,207.269 212.741,203.699 212.206 C 196.805 211.172,188.656 202.974,186.612 195.016 C 185.599 191.071,185.953 178.946,187.094 178.509 C 188.251 178.064,198.004 182.115,201.200 184.366 C 205.619 187.480,209.330 192.982,209.991 197.400 C 210.174 198.624,210.346 197.778,210.722 193.800 C 211.939 180.950,215.079 177.237,232.734 167.773 L 235.667 166.200 236.434 167.144 C 236.855 167.664,237.200 168.327,237.200 168.617 C 237.200 168.908,237.515 169.253,237.900 169.383 C 238.912 169.726,240.175 171.585,239.710 172.050 C 239.471 172.289,239.523 173.420,239.851 175.115 C 240.137 176.592,240.395 179.240,240.425 181.000 C 240.517 186.393,240.319 186.177,245.214 186.190 C 248.652 186.198,249.404 186.093,249.437 185.600 C 249.593 183.321,249.541 183.329,251.441 185.301 C 252.448 186.347,253.751 187.301,254.336 187.421 C 257.812 188.136,257.809 188.134,257.669 189.720 L 257.537 191.200 259.169 191.200 C 261.174 191.200,261.233 191.621,259.731 195.231 C 258.174 198.969,257.668 201.781,258.116 204.188 C 258.666 207.140,258.188 219.663,257.406 222.800 C 251.351 247.073,233.935 262.927,209.254 266.632 C 193.325 269.023,176.039 263.209,163.980 251.405 C 145.991 233.795,141.858 209.349,153.024 186.600 C 155.901 180.741,161.682 173.482,166.400 169.808 C 169.702 167.237,172.706 165.070,173.400 164.760 C 173.840 164.563,174.514 164.178,174.899 163.904 C 175.459 163.504,175.765 163.511,176.446 163.936 C 177.074 164.328,177.411 164.349,177.744 164.016 C 178.076 163.684,178.038 163.469,177.597 163.189 C 177.074 162.859,177.078 162.811,177.624 162.806 C 177.966 162.803,178.596 163.064,179.024 163.387 M262.091 173.200 C 262.634 174.190,263.762 176.069,264.600 177.376 C 272.800 190.174,275.771 209.847,272.034 226.600 C 268.748 241.330,258.272 258.083,248.000 265.034 C 247.010 265.704,244.940 267.168,243.400 268.288 C 241.860 269.408,238.844 271.241,236.697 272.361 C 234.550 273.481,232.480 274.564,232.097 274.768 C 226.230 277.895,208.737 281.502,208.113 279.715 C 207.923 279.173,207.976 279.159,214.400 277.996 C 261.386 269.493,285.824 220.567,263.905 178.885 C 263.013 177.188,261.775 174.810,261.154 173.600 C 259.143 169.682,259.971 169.328,262.091 173.200 M209.800 205.900 C 209.654 207.385,209.448 208.915,209.341 209.300 C 209.071 210.269,209.701 210.175,210.680 209.100 C 212.556 207.041,212.874 205.274,211.600 204.000 C 210.341 202.741,210.082 203.015,209.800 205.900 M252.266 208.586 C 249.328 211.989,244.729 214.575,239.300 215.877 C 238.055 216.176,238.161 216.751,239.964 219.454 C 241.904 222.363,245.422 228.576,247.008 231.895 C 247.663 233.267,248.326 234.392,248.480 234.395 C 250.077 234.425,253.806 223.570,254.798 216.000 C 255.314 212.067,255.192 206.727,254.582 206.526 C 254.351 206.450,253.309 207.377,252.266 208.586 M132.559 213.400 C 132.977 220.824,134.058 226.248,136.505 233.200 C 137.896 237.150,141.170 244.273,142.371 245.959 C 143.344 247.326,143.426 248.000,142.620 248.000 C 140.703 248.000,135.149 236.077,133.584 228.600 C 131.441 218.365,130.682 210.977,131.471 208.029 C 131.913 206.377,132.260 208.091,132.559 213.400 M213.462 209.531 C 212.593 210.492,212.627 210.800,213.600 210.800 C 214.040 210.800,214.400 210.612,214.400 210.382 C 214.400 210.153,214.625 209.994,214.900 210.030 C 216.771 210.273,217.373 209.929,216.000 209.400 C 214.160 208.692,214.225 208.688,213.462 209.531 M207.005 219.193 C 203.619 223.665,202.189 225.923,202.530 226.263 C 202.808 226.542,204.111 225.110,206.956 221.400 C 208.137 219.860,209.485 218.257,209.952 217.838 C 210.805 217.072,211.133 215.200,210.415 215.200 C 210.203 215.200,208.668 216.997,207.005 219.193 " stroke="none" fill="#f9f9f8" fill-rule="evenodd"></path><path id="path2" d="M193.600 137.600 C 193.115 137.914,193.172 137.989,193.900 137.994 C 194.395 137.997,194.800 137.820,194.800 137.600 C 194.800 137.099,194.376 137.099,193.600 137.600 M207.542 137.561 C 207.455 137.812,205.212 137.991,201.763 138.023 C 198.663 138.051,195.932 138.195,195.694 138.342 C 195.457 138.489,198.293 138.607,201.997 138.604 C 207.917 138.601,208.677 138.527,208.279 138.000 C 208.030 137.670,207.794 137.344,207.755 137.275 C 207.716 137.206,207.620 137.335,207.542 137.561 M215.637 138.556 C 215.405 138.835,214.627 139.009,213.908 138.942 L 212.600 138.821 213.945 139.281 C 215.086 139.672,215.345 139.642,215.655 139.087 C 215.856 138.728,216.286 138.535,216.611 138.659 C 216.935 138.784,217.200 138.796,217.200 138.686 C 217.200 138.195,216.017 138.097,215.637 138.556 M189.600 139.208 C 189.600 139.450,190.047 139.508,190.700 139.351 C 192.270 138.975,192.323 138.800,190.867 138.800 C 190.170 138.800,189.600 138.983,189.600 139.208 M182.400 140.400 C 182.400 141.284,182.698 141.383,183.600 140.800 C 184.109 140.471,184.090 140.411,183.476 140.406 C 183.078 140.403,182.864 140.220,183.000 140.000 C 183.136 139.780,183.057 139.600,182.824 139.600 C 182.591 139.600,182.400 139.960,182.400 140.400 M185.600 140.000 C 185.600 140.469,185.907 140.469,187.000 140.000 C 187.709 139.695,187.675 139.653,186.700 139.628 C 186.095 139.613,185.600 139.780,185.600 140.000 M218.200 140.000 C 219.305 140.475,220.000 140.475,220.000 140.000 C 220.000 139.780,219.415 139.613,218.700 139.628 C 217.611 139.652,217.530 139.712,218.200 140.000 M222.000 140.800 C 222.776 141.301,223.200 141.301,223.200 140.800 C 223.200 140.580,222.795 140.403,222.300 140.406 C 221.572 140.411,221.515 140.486,222.000 140.800 M179.800 141.600 C 179.485 142.109,180.412 142.109,181.200 141.600 C 181.688 141.285,181.636 141.211,180.924 141.206 C 180.442 141.203,179.936 141.380,179.800 141.600 M204.400 141.456 C 206.974 141.623,212.108 142.368,215.600 143.082 C 217.250 143.419,219.352 143.845,220.270 144.030 C 222.062 144.389,228.686 146.752,231.539 148.050 C 233.508 148.945,234.603 148.880,233.155 147.953 C 227.721 144.475,214.351 141.169,206.200 141.287 C 204.220 141.316,203.410 141.392,204.400 141.456 M174.832 142.700 C 174.798 143.651,175.404 143.844,176.400 143.200 C 176.889 142.884,176.840 142.811,176.133 142.806 C 175.657 142.803,175.176 142.575,175.065 142.300 C 174.954 142.025,174.849 142.205,174.832 142.700 M177.400 142.400 C 177.108 142.873,177.499 142.873,178.600 142.400 C 179.371 142.069,179.369 142.055,178.524 142.028 C 178.042 142.013,177.536 142.180,177.400 142.400 M168.800 146.033 L 167.800 146.848 169.200 146.173 C 170.912 145.348,171.094 145.197,170.367 145.209 C 170.055 145.214,169.350 145.585,168.800 146.033 M233.633 145.349 C 234.045 145.717,236.400 146.800,236.400 146.621 C 236.400 146.390,234.182 145.200,233.753 145.200 C 233.596 145.200,233.542 145.267,233.633 145.349 M176.600 146.183 C 176.380 146.249,175.390 146.541,174.400 146.833 C 172.594 147.365,172.220 147.547,167.276 150.307 C 165.804 151.129,164.143 152.036,163.584 152.323 C 162.398 152.932,158.617 155.725,156.720 157.393 C 152.393 161.196,148.000 165.377,148.000 165.692 C 148.000 165.893,147.729 166.328,147.399 166.658 C 145.498 168.559,139.200 178.581,139.200 179.705 C 139.200 180.399,139.752 179.660,141.095 177.169 C 142.276 174.978,143.747 172.772,146.943 168.400 C 148.795 165.866,155.534 159.043,157.600 157.610 C 158.370 157.076,159.090 156.536,159.200 156.410 C 159.310 156.284,161.060 155.054,163.089 153.676 C 166.599 151.293,169.068 150.003,175.400 147.244 C 177.692 146.245,178.359 145.656,176.600 146.183 M236.800 146.930 C 236.800 147.024,238.504 148.119,240.588 149.362 C 245.045 152.022,249.439 155.396,253.594 159.350 C 255.241 160.918,255.986 161.541,255.249 160.735 C 254.513 159.929,254.030 159.076,254.176 158.839 C 254.346 158.564,254.192 158.505,253.751 158.674 C 253.216 158.879,253.121 158.784,253.326 158.249 C 253.478 157.852,253.429 157.659,253.210 157.794 C 253.000 157.924,251.517 156.921,249.914 155.566 C 248.311 154.212,246.416 152.720,245.702 152.252 C 244.988 151.783,244.484 151.184,244.582 150.920 C 244.686 150.638,244.526 150.530,244.194 150.658 C 243.883 150.777,243.120 150.513,242.498 150.070 C 241.073 149.055,236.800 146.700,236.800 146.930 M234.400 148.957 C 234.400 149.279,239.238 152.095,239.442 151.892 C 239.549 151.785,238.863 151.250,237.918 150.704 C 235.384 149.238,234.400 148.749,234.400 148.957 M240.003 152.300 C 240.005 152.465,240.455 152.808,241.003 153.062 C 242.158 153.598,242.316 153.328,241.300 152.557 C 240.509 151.957,239.998 151.856,240.003 152.300 M157.185 153.629 L 155.800 154.858 157.300 153.781 C 158.626 152.830,159.057 152.400,158.685 152.400 C 158.622 152.400,157.947 152.953,157.185 153.629 M151.354 158.638 L 147.400 162.476 151.500 158.751 C 153.755 156.702,155.600 154.975,155.600 154.913 C 155.600 154.576,154.962 155.136,151.354 158.638 M257.083 163.188 C 257.454 163.621,257.838 163.896,257.936 163.798 C 258.174 163.559,257.195 162.400,256.755 162.400 C 256.564 162.400,256.711 162.755,257.083 163.188 M145.000 165.458 C 143.900 166.904,142.754 168.346,142.452 168.662 C 142.151 168.979,142.000 169.334,142.117 169.450 C 142.233 169.567,143.091 168.613,144.022 167.331 C 144.953 166.049,146.172 164.505,146.732 163.900 C 147.292 163.295,147.581 162.807,147.375 162.815 C 147.169 162.823,146.100 164.012,145.000 165.458 M260.173 166.877 C 261.662 168.616,262.800 169.162,262.800 168.138 C 262.800 167.728,262.554 167.624,262.000 167.800 C 261.432 167.980,261.200 167.872,261.200 167.427 C 261.200 167.082,260.975 166.797,260.700 166.794 C 260.367 166.790,260.400 166.658,260.800 166.400 C 261.285 166.086,261.228 166.011,260.500 166.006 C 260.005 166.003,259.600 165.820,259.600 165.600 C 259.600 165.380,259.406 165.200,259.169 165.200 C 258.932 165.200,259.384 165.955,260.173 166.877 M234.400 167.632 C 233.930 167.961,233.995 167.997,234.700 167.799 C 235.774 167.497,236.363 168.674,236.464 171.326 C 236.526 172.951,236.533 172.959,236.697 171.600 C 237.051 168.666,235.861 166.609,234.400 167.632 M262.681 170.163 C 263.077 170.693,263.459 170.964,263.532 170.767 C 263.605 170.569,263.393 170.136,263.061 169.804 C 262.123 168.865,261.883 169.093,262.681 170.163 M139.673 170.291 C 139.255 171.049,139.273 171.147,139.791 170.948 C 140.200 170.791,140.400 170.955,140.400 171.446 C 140.400 172.079,140.487 172.054,141.041 171.263 C 141.393 170.760,141.573 170.240,141.441 170.107 C 141.308 169.975,141.200 170.077,141.200 170.333 C 141.200 171.068,140.475 170.878,140.312 170.100 C 140.184 169.493,140.100 169.518,139.673 170.291 M226.300 171.829 C 224.805 172.640,224.896 172.978,226.400 172.200 C 227.060 171.859,227.600 171.494,227.600 171.390 C 227.600 171.132,227.557 171.147,226.300 171.829 M236.986 180.400 L 237.000 187.000 242.600 187.044 L 248.200 187.087 243.600 186.796 C 241.070 186.636,238.685 186.482,238.300 186.453 C 237.682 186.406,237.596 185.894,237.565 182.100 C 237.546 179.735,237.404 176.900,237.251 175.800 C 237.078 174.563,236.977 176.319,236.986 180.400 M217.263 178.565 C 215.909 179.976,214.800 181.266,214.800 181.432 C 214.800 181.598,214.853 181.658,214.918 181.567 C 214.983 181.475,216.181 180.185,217.581 178.700 C 218.981 177.215,220.037 176.000,219.927 176.000 C 219.817 176.000,218.618 177.154,217.263 178.565 M187.233 179.344 C 187.325 179.423,187.940 179.608,188.600 179.756 C 189.476 179.952,189.638 179.915,189.200 179.618 C 188.660 179.253,186.832 178.998,187.233 179.344 M186.934 182.800 C 186.934 184.450,187.005 185.125,187.091 184.300 C 187.178 183.475,187.178 182.125,187.091 181.300 C 187.005 180.475,186.934 181.150,186.934 182.800 M196.433 182.541 C 196.968 182.996,200.400 184.842,200.400 184.676 C 200.400 184.431,196.975 182.400,196.562 182.400 C 196.400 182.400,196.342 182.464,196.433 182.541 M266.400 182.920 C 266.400 183.206,266.558 183.611,266.751 183.820 C 267.642 184.786,270.492 193.954,271.220 198.200 C 272.948 208.278,272.640 219.859,270.426 228.000 C 270.216 228.770,269.876 230.030,269.669 230.800 C 268.060 236.782,260.939 250.559,258.682 252.055 C 258.471 252.196,258.438 252.538,258.611 252.817 C 258.802 253.127,258.762 253.224,258.507 253.066 C 258.277 252.924,257.450 253.571,256.669 254.504 C 250.448 261.927,242.432 268.192,233.800 272.377 C 230.978 273.746,230.549 273.925,228.000 274.800 C 227.230 275.064,226.240 275.431,225.800 275.615 C 225.360 275.798,223.650 276.330,222.000 276.797 C 220.350 277.263,218.447 277.815,217.772 278.022 C 217.096 278.230,216.106 278.403,215.572 278.406 C 215.037 278.409,214.330 278.587,214.000 278.800 C 213.525 279.107,213.608 279.189,214.400 279.194 C 216.767 279.208,226.415 276.634,226.734 275.902 C 226.808 275.733,227.037 275.699,227.244 275.827 C 228.297 276.478,238.876 271.103,244.267 267.178 C 254.991 259.369,260.855 252.454,266.298 241.200 C 271.630 230.175,273.500 221.198,273.055 208.769 C 272.780 201.093,272.366 198.633,269.891 190.000 C 268.756 186.044,266.400 181.264,266.400 182.920 M200.800 184.913 C 200.800 185.005,201.925 186.039,203.300 187.212 C 205.163 188.801,205.443 188.960,204.400 187.837 C 203.063 186.398,200.800 184.560,200.800 184.913 M186.540 189.200 C 186.540 191.070,186.609 191.835,186.693 190.900 C 186.777 189.965,186.777 188.435,186.693 187.500 C 186.609 186.565,186.540 187.330,186.540 189.200 M212.229 187.029 C 212.081 187.615,212.038 188.172,212.132 188.266 C 212.227 188.360,212.424 187.958,212.571 187.371 C 212.719 186.785,212.762 186.228,212.668 186.134 C 212.573 186.040,212.376 186.442,212.229 187.029 M248.833 187.344 C 248.925 187.423,249.990 187.589,251.200 187.712 C 252.569 187.851,253.098 187.808,252.600 187.596 C 251.833 187.270,248.489 187.047,248.833 187.344 M255.161 188.353 C 256.001 188.505,256.642 188.906,256.833 189.400 C 257.134 190.174,257.145 190.172,257.172 189.343 C 257.203 188.387,256.465 187.974,254.867 188.053 C 253.948 188.098,253.989 188.140,255.161 188.353 M211.693 190.400 C 211.693 191.170,211.775 191.485,211.876 191.100 C 211.976 190.715,211.976 190.085,211.876 189.700 C 211.775 189.315,211.693 189.630,211.693 190.400 M131.200 190.400 C 130.715 190.714,130.772 190.789,131.500 190.794 C 131.995 190.797,132.400 190.620,132.400 190.400 C 132.400 189.899,131.976 189.899,131.200 190.400 M207.482 192.989 C 208.073 194.193,208.623 195.111,208.705 195.029 C 208.884 194.849,206.867 190.800,206.598 190.800 C 206.494 190.800,206.892 191.785,207.482 192.989 M255.886 193.005 C 253.272 201.495,241.319 212.400,234.629 212.400 C 233.786 212.400,233.835 213.035,234.747 213.947 C 235.158 214.358,236.260 215.708,237.195 216.947 C 238.131 218.186,238.971 219.200,239.063 219.200 C 239.322 219.200,236.055 214.481,235.602 214.201 C 234.558 213.556,235.378 212.800,238.034 211.962 C 243.259 210.313,246.598 207.831,250.748 202.514 C 254.809 197.310,255.471 196.230,256.171 193.664 C 257.025 190.530,256.805 190.021,255.886 193.005 M211.342 195.800 C 211.341 197.780,211.408 198.640,211.492 197.712 C 211.576 196.784,211.577 195.164,211.495 194.112 C 211.412 193.060,211.343 193.820,211.342 195.800 M130.800 193.600 C 130.800 194.347,130.907 194.453,131.280 194.080 C 131.653 193.707,131.653 193.493,131.280 193.120 C 130.907 192.747,130.800 192.853,130.800 193.600 M273.440 193.866 C 273.808 195.399,274.000 195.544,274.000 194.290 C 274.000 193.717,273.813 193.132,273.584 192.990 C 273.311 192.821,273.262 193.123,273.440 193.866 M187.229 195.085 C 187.183 195.848,188.806 199.957,189.266 200.241 C 189.502 200.387,189.473 200.110,189.198 199.596 C 188.932 199.100,188.388 197.773,187.987 196.647 C 187.586 195.521,187.245 194.818,187.229 195.085 M274.150 196.187 C 274.026 196.510,274.120 197.275,274.359 197.887 C 274.783 198.972,274.791 198.963,274.678 197.506 C 274.614 196.685,274.751 195.934,274.981 195.838 C 275.214 195.741,275.172 195.649,274.887 195.632 C 274.606 195.614,274.274 195.864,274.150 196.187 M209.085 199.202 C 209.308 203.839,209.503 204.459,209.525 200.600 C 209.536 198.840,209.404 197.041,209.232 196.602 C 209.061 196.164,208.995 197.334,209.085 199.202 M129.628 197.147 C 129.408 197.558,129.340 198.007,129.477 198.144 C 129.827 198.493,130.800 197.616,130.800 196.951 C 130.800 196.156,130.096 196.274,129.628 197.147 M129.412 200.917 C 129.241 201.312,129.213 201.747,129.351 201.884 C 129.757 202.290,130.084 201.720,129.897 200.931 C 129.732 200.233,129.710 200.232,129.412 200.917 M275.059 203.000 C 275.199 204.100,275.377 205.075,275.456 205.167 C 275.799 205.564,275.550 202.141,275.197 201.600 C 274.930 201.190,274.886 201.635,275.059 203.000 M212.056 202.200 C 212.056 202.640,212.211 203.360,212.400 203.800 L 212.744 204.600 212.744 203.800 C 212.744 203.360,212.589 202.640,212.400 202.200 L 212.056 201.400 212.056 202.200 M193.134 205.128 C 195.216 207.076,199.366 209.607,200.456 209.593 C 200.755 209.590,199.740 208.969,198.200 208.214 C 196.660 207.459,194.410 206.006,193.200 204.986 L 191.000 203.131 193.134 205.128 M208.893 206.800 C 208.893 207.570,208.975 207.885,209.076 207.500 C 209.176 207.115,209.176 206.485,209.076 206.100 C 208.975 205.715,208.893 206.030,208.893 206.800 M214.162 207.300 L 213.400 208.200 214.316 207.423 C 215.210 206.666,215.264 206.665,216.516 207.380 L 217.800 208.114 216.917 207.257 C 215.791 206.164,215.114 206.175,214.162 207.300 M211.894 208.503 L 211.188 209.800 211.994 208.856 C 212.680 208.052,213.046 207.194,212.700 207.203 C 212.645 207.204,212.282 207.789,211.894 208.503 M218.684 208.798 C 218.851 209.437,218.542 209.757,217.146 210.390 C 216.186 210.826,215.670 211.186,216.000 211.190 C 217.698 211.210,219.917 208.890,218.837 208.223 C 218.638 208.100,218.569 208.359,218.684 208.798 M212.423 209.461 C 211.964 210.045,211.477 210.411,211.341 210.274 C 210.915 209.849,209.253 211.430,207.781 213.660 C 206.829 215.102,206.733 215.346,207.484 214.408 C 210.256 210.952,211.177 210.128,211.189 211.100 C 211.198 211.859,211.404 211.991,212.500 211.940 C 213.710 211.884,213.724 211.869,212.700 211.713 C 211.350 211.509,211.346 211.408,212.620 209.738 C 213.182 209.002,213.555 208.400,213.449 208.400 C 213.344 208.400,212.882 208.877,212.423 209.461 M208.400 210.035 C 208.400 210.788,208.232 210.847,206.700 210.637 C 205.495 210.471,205.233 210.511,205.800 210.773 C 207.463 211.543,208.800 211.288,208.800 210.200 C 208.800 209.650,208.710 209.200,208.600 209.200 C 208.490 209.200,208.400 209.576,208.400 210.035 M202.000 210.000 C 202.550 210.176,203.360 210.326,203.800 210.332 L 204.600 210.344 203.800 210.000 C 203.360 209.811,202.550 209.662,202.000 209.668 L 201.000 209.680 202.000 210.000 M276.493 211.200 C 276.493 211.970,276.575 212.285,276.676 211.900 C 276.776 211.515,276.776 210.885,276.676 210.500 C 276.575 210.115,276.493 210.430,276.493 211.200 M211.436 216.415 C 211.586 217.397,211.957 218.740,212.260 219.400 C 212.564 220.060,212.707 220.240,212.578 219.800 C 212.450 219.360,212.176 218.114,211.970 217.031 C 211.493 214.527,211.074 214.044,211.436 216.415 M204.975 217.300 L 203.800 218.600 205.100 217.425 C 205.815 216.779,206.400 216.194,206.400 216.125 C 206.400 215.816,206.070 216.088,204.975 217.300 M207.375 217.468 C 206.759 218.276,206.459 218.811,206.709 218.656 C 207.221 218.340,208.953 216.000,208.675 216.000 C 208.576 216.000,207.991 216.661,207.375 217.468 M275.051 219.877 C 274.902 220.968,274.963 221.923,275.197 222.157 C 275.468 222.428,275.600 221.811,275.600 220.280 C 275.600 217.510,275.396 217.361,275.051 219.877 M129.078 219.456 C 128.758 219.775,129.119 220.400,129.624 220.400 C 129.831 220.400,130.000 220.130,130.000 219.800 C 130.000 219.181,129.528 219.005,129.078 219.456 M240.830 222.200 C 241.324 223.080,241.900 223.980,242.110 224.200 C 242.709 224.828,241.339 222.294,240.596 221.400 C 240.230 220.960,240.335 221.320,240.830 222.200 M202.200 224.800 C 201.859 225.460,201.669 226.000,201.779 226.000 C 201.889 226.000,202.259 225.460,202.600 224.800 C 202.941 224.140,203.131 223.600,203.021 223.600 C 202.911 223.600,202.541 224.140,202.200 224.800 M129.891 224.825 C 130.001 225.246,130.250 225.492,130.445 225.372 C 130.972 225.046,130.875 224.514,130.245 224.273 C 129.857 224.124,129.751 224.289,129.891 224.825 M274.249 225.130 C 274.072 225.642,274.033 226.167,274.163 226.297 C 274.578 226.711,274.870 226.100,274.718 225.134 L 274.571 224.200 274.249 225.130 M215.043 225.968 C 216.102 227.883,219.510 231.237,221.700 232.520 C 224.651 234.250,224.321 233.770,221.059 231.588 C 219.156 230.315,217.501 228.809,216.556 227.488 C 214.620 224.784,214.098 224.259,215.043 225.968 M244.600 229.200 C 245.376 230.740,246.100 232.000,246.210 232.000 C 246.320 232.000,245.776 230.740,245.000 229.200 C 244.224 227.660,243.500 226.400,243.390 226.400 C 243.280 226.400,243.824 227.660,244.600 229.200 M273.600 227.567 C 273.600 227.769,273.500 228.196,273.377 228.516 C 273.254 228.835,273.400 229.191,273.702 229.307 C 274.108 229.463,274.206 229.219,274.079 228.359 C 273.920 227.276,273.600 226.747,273.600 227.567 M272.687 231.316 C 272.549 231.678,272.619 232.088,272.844 232.227 C 273.422 232.584,273.544 232.324,273.220 231.429 C 272.974 230.752,272.909 230.738,272.687 231.316 M245.600 233.033 L 244.600 233.588 245.700 233.594 C 246.414 233.598,246.800 233.389,246.800 233.000 C 246.800 232.670,246.755 232.418,246.700 232.439 C 246.645 232.461,246.150 232.728,245.600 233.033 M225.489 234.193 C 227.211 234.995,232.821 235.348,235.800 234.842 L 238.200 234.433 234.948 234.576 C 231.947 234.707,227.616 234.371,225.200 233.820 C 224.442 233.647,224.512 233.737,225.489 234.193 M239.600 234.000 C 238.229 234.289,238.225 234.295,239.400 234.324 C 240.060 234.341,241.320 234.205,242.200 234.023 L 243.800 233.692 242.400 233.699 C 241.630 233.702,240.370 233.838,239.600 234.000 M136.800 236.953 C 136.800 237.283,136.980 237.664,137.200 237.800 C 137.420 237.936,137.600 237.777,137.600 237.447 C 137.600 237.117,137.420 236.736,137.200 236.600 C 136.980 236.464,136.800 236.623,136.800 236.953 M138.400 240.720 C 138.400 241.300,139.394 243.194,139.700 243.197 C 140.133 243.201,140.076 242.908,139.390 241.580 C 138.792 240.424,138.400 240.083,138.400 240.720 M139.659 248.635 C 139.929 249.468,143.002 253.993,143.299 253.997 C 143.464 253.998,142.998 253.145,142.263 252.100 C 141.529 251.055,140.610 249.750,140.222 249.200 C 139.834 248.650,139.581 248.396,139.659 248.635 M263.475 250.671 C 262.653 251.920,262.309 252.645,262.711 252.281 C 263.399 251.658,265.414 248.400,265.111 248.400 C 265.034 248.400,264.298 249.422,263.475 250.671 M260.764 254.500 C 260.275 255.215,259.236 256.475,258.456 257.300 C 257.676 258.125,257.170 258.800,257.331 258.800 C 257.492 258.800,258.204 258.142,258.912 257.339 C 260.361 255.694,262.127 253.200,261.842 253.200 C 261.739 253.200,261.254 253.785,260.764 254.500 M255.200 257.330 C 255.200 257.402,254.710 257.897,254.112 258.430 C 253.309 259.146,253.178 259.191,253.612 258.600 C 254.330 257.622,255.200 256.927,255.200 257.330 M150.125 261.924 C 151.167 262.982,151.925 263.942,151.810 264.057 C 151.694 264.172,151.879 264.267,152.220 264.267 C 152.595 264.267,152.007 263.422,150.734 262.133 C 149.575 260.960,148.538 260.000,148.429 260.000 C 148.319 260.000,149.083 260.866,150.125 261.924 M250.574 265.307 L 249.000 266.999 250.596 265.599 C 251.473 264.830,252.268 264.155,252.362 264.100 C 252.456 264.045,252.447 263.913,252.341 263.807 C 252.235 263.701,251.440 264.376,250.574 265.307 M243.007 271.022 C 241.911 271.780,241.159 272.400,241.335 272.400 C 241.718 272.400,245.200 270.040,245.200 269.781 C 245.200 269.511,245.159 269.534,243.007 271.022 M209.600 279.600 C 209.600 280.058,210.170 280.058,211.600 279.600 C 212.492 279.314,212.439 279.275,211.100 279.240 C 210.275 279.218,209.600 279.380,209.600 279.600 M178.239 279.937 C 177.854 280.560,178.585 281.128,179.082 280.592 C 179.461 280.184,179.442 280.025,178.995 279.853 C 178.682 279.733,178.342 279.771,178.239 279.937 M224.400 280.000 C 223.915 280.314,223.972 280.389,224.700 280.394 C 225.195 280.397,225.600 280.220,225.600 280.000 C 225.600 279.499,225.176 279.499,224.400 280.000 M180.832 281.300 C 180.849 281.795,180.954 281.975,181.065 281.700 C 181.176 281.425,181.657 281.187,182.133 281.172 C 182.973 281.145,182.975 281.133,182.200 280.800 C 180.966 280.270,180.798 280.331,180.832 281.300 M184.400 281.600 C 184.730 281.813,185.450 281.973,186.000 281.954 L 187.000 281.920 186.000 281.600 C 184.458 281.106,183.636 281.106,184.400 281.600 M218.200 281.600 L 217.000 281.905 218.200 281.947 C 218.860 281.969,219.670 281.813,220.000 281.600 C 220.743 281.120,220.087 281.120,218.200 281.600 M188.000 282.400 C 188.330 282.613,189.050 282.773,189.600 282.754 L 190.600 282.720 189.600 282.400 C 188.058 281.906,187.236 281.906,188.000 282.400 M214.000 282.400 L 212.600 282.695 214.000 282.741 C 214.770 282.767,215.670 282.613,216.000 282.400 C 216.727 281.930,216.233 281.930,214.000 282.400 M193.709 283.276 C 193.979 283.447,196.630 283.566,199.600 283.539 C 205.984 283.482,205.423 283.292,198.309 283.101 C 195.509 283.026,193.439 283.105,193.709 283.276 M207.400 283.200 L 205.400 283.474 207.200 283.490 C 208.190 283.498,209.540 283.368,210.200 283.200 C 211.777 282.799,210.325 282.799,207.400 283.200 " stroke="none" fill="#a5a5a5" fill-rule="evenodd"></path><path id="path3" d="M194.800 137.653 C 194.800 137.877,194.215 138.029,193.500 137.990 C 190.335 137.817,188.752 137.998,189.035 138.500 C 189.261 138.900,189.210 138.900,188.779 138.500 C 188.482 138.225,188.051 138.003,187.820 138.006 C 187.589 138.009,187.670 138.187,188.000 138.400 C 188.616 138.798,187.759 138.958,185.122 138.938 C 184.529 138.934,184.079 139.118,184.122 139.347 C 184.165 139.576,183.990 139.772,183.733 139.782 C 182.488 139.830,182.857 140.400,184.133 140.400 C 184.940 140.400,185.600 140.220,185.600 140.000 C 185.600 139.780,186.500 139.600,187.600 139.600 C 188.700 139.600,189.600 139.434,189.600 139.232 C 189.600 139.029,190.905 138.775,192.500 138.667 C 194.095 138.559,195.850 138.380,196.400 138.269 C 196.950 138.158,199.695 138.052,202.500 138.033 C 205.608 138.013,207.600 137.844,207.600 137.600 C 207.600 137.350,205.211 137.209,201.200 137.222 C 197.125 137.236,194.800 137.393,194.800 137.653 M208.000 137.551 C 208.000 138.596,214.166 139.486,215.537 138.639 C 215.829 138.458,215.906 138.580,215.753 138.979 C 215.555 139.495,215.895 139.600,217.757 139.600 C 218.991 139.600,220.000 139.780,220.000 140.000 C 220.000 140.220,220.720 140.400,221.600 140.400 C 222.480 140.400,223.200 140.580,223.200 140.800 C 223.200 141.020,223.549 141.200,223.976 141.200 C 224.403 141.200,224.864 141.380,225.000 141.600 C 225.136 141.820,225.676 142.000,226.200 142.000 C 226.724 142.000,227.264 142.180,227.400 142.400 C 227.536 142.620,227.997 142.800,228.424 142.800 C 228.851 142.800,229.200 142.980,229.200 143.200 C 229.200 143.420,229.469 143.600,229.798 143.600 C 230.910 143.600,239.650 148.042,242.420 150.014 C 243.027 150.446,243.706 150.800,243.928 150.800 C 244.151 150.800,244.393 150.935,244.467 151.100 C 244.540 151.265,245.320 151.937,246.200 152.593 C 247.080 153.249,248.929 154.742,250.309 155.911 C 251.689 157.080,252.992 157.928,253.205 157.797 C 253.429 157.658,253.480 157.847,253.326 158.249 C 253.125 158.771,253.219 158.878,253.710 158.690 C 254.126 158.530,254.292 158.616,254.173 158.927 C 254.070 159.195,254.885 160.311,255.984 161.407 C 257.083 162.503,257.987 163.543,257.991 163.718 C 258.008 164.319,259.831 165.867,260.522 165.867 C 261.125 165.867,261.102 165.747,260.337 164.933 C 259.855 164.420,259.211 164.000,258.907 164.000 C 258.602 164.000,258.469 163.812,258.611 163.583 C 258.753 163.353,258.343 162.678,257.702 162.083 C 257.060 161.487,255.767 160.055,254.830 158.900 C 253.892 157.744,252.934 156.917,252.701 157.061 C 252.462 157.209,252.393 157.135,252.543 156.892 C 252.689 156.655,252.222 156.049,251.505 155.546 C 250.787 155.042,249.501 153.953,248.646 153.125 C 247.792 152.297,246.935 151.716,246.743 151.835 C 246.551 151.954,246.286 151.769,246.154 151.425 C 246.022 151.081,245.587 150.800,245.187 150.800 C 244.786 150.800,244.398 150.485,244.324 150.101 C 244.250 149.716,243.922 149.401,243.595 149.401 C 243.268 149.400,242.944 149.220,242.876 149.000 C 242.757 148.616,241.436 147.930,240.600 147.817 C 240.380 147.788,240.245 147.547,240.300 147.282 C 240.355 147.017,240.085 146.796,239.700 146.791 C 239.315 146.786,238.550 146.430,238.000 146.000 C 237.450 145.570,236.674 145.214,236.276 145.209 C 235.878 145.204,235.664 145.020,235.800 144.800 C 235.941 144.572,235.596 144.400,235.000 144.400 C 234.404 144.400,234.059 144.228,234.200 144.000 C 234.336 143.780,234.077 143.600,233.624 143.600 C 233.171 143.600,232.800 143.398,232.800 143.151 C 232.800 142.858,232.564 142.893,232.123 143.251 C 231.663 143.624,231.543 143.640,231.747 143.300 C 231.936 142.985,231.816 142.800,231.424 142.800 C 231.081 142.800,230.800 142.620,230.800 142.400 C 230.800 142.180,230.665 142.021,230.500 142.047 C 229.509 142.204,228.390 141.940,228.600 141.600 C 228.740 141.373,228.404 141.200,227.824 141.200 C 227.261 141.200,226.800 140.999,226.800 140.753 C 226.800 140.508,226.466 140.394,226.057 140.501 C 225.648 140.608,224.973 140.501,224.557 140.264 C 224.141 140.026,223.440 139.765,223.000 139.684 C 221.839 139.471,221.015 139.273,220.900 139.181 C 220.664 138.991,219.882 138.897,218.100 138.844 C 216.743 138.804,216.370 138.680,216.795 138.412 C 217.281 138.104,217.244 138.039,216.595 138.057 C 214.061 138.124,211.248 137.847,211.432 137.548 C 211.551 137.356,210.827 137.200,209.824 137.200 C 208.821 137.200,208.000 137.358,208.000 137.551 M181.400 140.000 C 181.626 140.365,180.989 140.555,179.700 140.507 C 179.425 140.497,179.200 140.649,179.200 140.844 C 179.200 141.040,178.469 141.200,177.576 141.200 C 176.596 141.200,176.051 141.358,176.200 141.600 C 176.336 141.820,176.167 142.000,175.824 142.000 C 175.481 142.000,175.200 142.180,175.200 142.400 C 175.200 142.620,175.639 142.800,176.176 142.800 C 176.713 142.800,177.264 142.620,177.400 142.400 C 177.536 142.180,178.076 142.000,178.600 142.000 C 179.124 142.000,179.664 141.820,179.800 141.600 C 179.936 141.380,180.577 141.200,181.224 141.200 C 182.133 141.200,182.400 141.019,182.400 140.400 C 182.400 139.942,182.133 139.600,181.776 139.600 C 181.433 139.600,181.264 139.780,181.400 140.000 M171.867 143.369 C 171.734 143.717,171.329 143.854,170.824 143.722 C 170.355 143.600,170.000 143.699,170.000 143.953 C 170.000 144.199,169.730 144.400,169.400 144.400 C 169.070 144.400,168.800 144.580,168.800 144.800 C 168.800 145.020,168.350 145.200,167.800 145.200 C 167.250 145.200,166.800 145.380,166.800 145.600 C 166.800 145.820,166.440 146.000,166.000 146.000 C 165.560 146.000,165.200 146.180,165.200 146.400 C 165.200 146.620,164.930 146.800,164.600 146.800 C 164.270 146.800,164.000 146.980,164.000 147.200 C 164.000 147.420,163.730 147.600,163.400 147.600 C 163.070 147.600,162.800 147.780,162.800 148.000 C 162.800 148.220,162.530 148.400,162.200 148.400 C 161.870 148.400,161.600 148.580,161.600 148.800 C 161.600 149.020,161.413 149.200,161.184 149.200 C 160.827 149.200,158.599 150.600,158.000 151.201 C 157.890 151.311,157.314 151.652,156.719 151.958 C 156.125 152.264,155.675 152.651,155.719 152.817 C 155.764 152.984,155.697 153.093,155.571 153.060 C 155.207 152.964,154.000 154.298,154.000 154.795 C 154.000 155.044,153.792 155.119,153.538 154.962 C 153.252 154.785,153.185 154.852,153.362 155.138 C 153.519 155.392,153.440 155.600,153.188 155.600 C 152.774 155.600,151.442 156.668,149.648 158.439 C 149.292 158.791,148.100 160.118,147.000 161.388 C 145.900 162.657,144.505 164.229,143.900 164.879 C 143.295 165.529,142.800 166.228,142.800 166.431 C 142.800 166.634,142.620 166.800,142.400 166.800 C 142.180 166.800,142.000 167.100,142.000 167.467 C 142.000 167.833,141.883 168.016,141.739 167.873 C 141.445 167.579,140.400 169.409,140.400 170.219 C 140.400 170.509,140.040 170.860,139.600 171.000 C 139.153 171.142,138.800 171.605,138.800 172.051 C 138.800 172.489,138.620 172.736,138.400 172.600 C 138.180 172.464,138.000 172.723,138.000 173.176 C 138.000 173.629,137.820 174.000,137.600 174.000 C 137.380 174.000,137.200 174.270,137.200 174.600 C 137.200 174.930,137.001 175.200,136.757 175.200 C 136.514 175.200,136.413 175.457,136.533 175.771 C 136.654 176.085,136.527 176.528,136.252 176.757 C 135.977 176.985,135.506 178.078,135.204 179.186 C 134.902 180.294,134.508 181.200,134.328 181.200 C 134.147 181.200,134.000 181.470,134.000 181.800 C 134.000 182.130,133.820 182.400,133.600 182.400 C 133.380 182.400,133.200 183.041,133.200 183.824 C 133.200 184.780,133.052 185.156,132.748 184.968 C 132.472 184.797,132.374 184.904,132.496 185.244 C 132.606 185.550,132.449 186.407,132.148 187.149 C 131.503 188.737,131.437 190.000,132.000 190.000 C 132.220 190.000,132.400 189.460,132.400 188.800 C 132.400 188.140,132.580 187.600,132.800 187.600 C 133.020 187.600,133.200 187.150,133.200 186.600 C 133.200 186.050,133.380 185.600,133.600 185.600 C 133.820 185.600,134.000 185.150,134.000 184.600 C 134.000 184.050,134.180 183.600,134.400 183.600 C 134.620 183.600,134.800 183.335,134.800 183.012 C 134.800 182.689,135.160 181.783,135.600 181.000 C 136.040 180.217,136.400 179.311,136.400 178.988 C 136.400 178.665,136.580 178.400,136.800 178.400 C 137.020 178.400,137.204 178.085,137.209 177.700 C 137.214 177.315,137.570 176.550,138.000 176.000 C 138.430 175.450,138.790 174.820,138.800 174.600 C 138.810 174.380,139.170 173.750,139.600 173.200 C 140.030 172.650,140.386 171.925,140.391 171.588 C 140.396 171.252,140.760 170.717,141.200 170.400 C 141.640 170.083,142.000 169.608,142.000 169.345 C 142.000 169.082,142.135 168.807,142.300 168.733 C 142.465 168.660,143.409 167.520,144.398 166.200 C 148.592 160.602,156.054 153.952,163.000 149.623 C 164.540 148.663,166.742 147.275,167.894 146.539 C 169.045 145.802,170.260 145.200,170.594 145.200 C 170.927 145.200,171.200 145.020,171.200 144.800 C 171.200 144.580,171.650 144.400,172.200 144.400 C 172.750 144.400,173.200 144.220,173.200 144.000 C 173.200 143.780,173.560 143.600,174.000 143.600 C 174.440 143.600,174.800 143.420,174.800 143.200 C 174.800 142.567,172.116 142.722,171.867 143.369 M260.700 166.665 C 260.975 166.776,261.200 167.122,261.200 167.433 C 261.200 167.745,261.380 168.000,261.600 168.000 C 262.246 168.000,262.058 166.908,261.367 166.643 C 261.019 166.509,260.614 166.414,260.467 166.432 C 260.320 166.449,260.425 166.554,260.700 166.665 M233.400 168.378 C 231.676 169.194,231.680 169.454,233.406 168.798 C 235.309 168.074,235.751 168.733,236.275 173.069 L 236.750 177.000 236.540 173.233 C 236.218 167.463,236.011 167.143,233.400 168.378 M262.000 168.778 C 262.000 168.913,262.360 169.283,262.800 169.600 C 263.240 169.917,263.600 170.497,263.600 170.888 C 263.600 171.280,263.780 171.600,264.000 171.600 C 264.220 171.600,264.400 171.870,264.400 172.200 C 264.400 172.530,264.546 172.800,264.725 172.800 C 264.904 172.800,265.298 173.430,265.600 174.200 C 265.902 174.970,266.296 175.600,266.475 175.600 C 266.654 175.600,266.800 175.960,266.800 176.400 C 266.800 176.840,266.980 177.200,267.200 177.200 C 267.420 177.200,267.600 177.470,267.600 177.800 C 267.600 178.130,267.780 178.400,268.000 178.400 C 268.220 178.400,268.400 178.634,268.400 178.920 C 268.400 179.656,269.341 181.593,269.700 181.597 C 269.865 181.599,270.000 182.050,270.000 182.600 C 270.000 183.150,270.180 183.600,270.400 183.600 C 270.620 183.600,270.800 184.050,270.800 184.600 C 270.800 185.150,270.980 185.600,271.200 185.600 C 271.420 185.600,271.600 186.039,271.600 186.576 C 271.600 187.113,271.780 187.664,272.000 187.800 C 272.220 187.936,272.400 188.577,272.400 189.224 C 272.400 189.871,272.569 190.400,272.775 190.400 C 272.981 190.400,273.206 190.984,273.275 191.697 C 273.358 192.559,273.638 193.039,274.110 193.128 C 274.810 193.261,274.935 192.448,274.289 191.970 C 274.119 191.843,273.939 191.169,273.889 190.471 C 273.840 189.773,273.665 189.201,273.500 189.201 C 273.335 189.200,273.200 188.840,273.200 188.400 C 273.200 187.960,273.058 187.600,272.885 187.600 C 272.712 187.600,272.526 187.018,272.472 186.307 C 272.417 185.595,272.199 184.839,271.987 184.627 C 271.774 184.414,271.600 183.905,271.600 183.496 C 271.600 183.087,271.420 182.864,271.200 183.000 C 270.980 183.136,270.800 182.985,270.800 182.664 C 270.800 182.344,270.260 181.055,269.600 179.800 C 268.940 178.545,268.400 177.307,268.400 177.048 C 268.400 176.789,268.040 176.317,267.600 176.000 C 267.160 175.683,266.800 175.041,266.800 174.574 C 266.800 174.106,266.456 173.413,266.037 173.033 C 265.617 172.653,265.055 171.815,264.788 171.171 C 264.521 170.527,264.157 170.000,263.978 170.000 C 263.800 170.000,263.549 169.670,263.421 169.267 C 263.211 168.604,262.000 168.188,262.000 168.778 M224.500 173.246 C 223.137 174.119,222.695 174.706,223.900 174.043 C 224.818 173.539,226.256 172.427,226.000 172.419 C 225.890 172.416,225.215 172.788,224.500 173.246 M218.466 177.900 L 215.737 180.600 218.368 178.224 C 219.816 176.918,221.171 175.703,221.380 175.524 C 221.589 175.346,221.633 175.200,221.477 175.200 C 221.322 175.200,219.967 176.415,218.466 177.900 M236.611 181.411 C 236.453 183.306,236.409 184.942,236.513 185.046 C 236.617 185.150,236.832 183.685,236.989 181.789 C 237.147 179.894,237.191 178.258,237.087 178.154 C 236.983 178.050,236.768 179.515,236.611 181.411 M187.254 181.100 C 187.294 182.176,187.358 182.317,187.483 181.600 C 187.578 181.050,187.948 180.375,188.305 180.100 C 188.882 179.655,188.857 179.600,188.076 179.600 C 187.321 179.600,187.207 179.806,187.254 181.100 M196.400 183.000 C 196.950 183.314,197.580 183.572,197.800 183.572 C 198.020 183.572,197.750 183.314,197.200 183.000 C 196.650 182.686,196.020 182.428,195.800 182.428 C 195.580 182.428,195.850 182.686,196.400 183.000 M186.944 189.200 C 186.944 191.290,187.012 192.145,187.094 191.100 C 187.176 190.055,187.176 188.345,187.094 187.300 C 187.012 186.255,186.944 187.110,186.944 189.200 M204.017 188.204 C 204.778 189.086,205.723 190.256,206.117 190.804 C 206.809 191.765,206.810 191.754,206.124 190.488 C 205.733 189.766,204.788 188.596,204.023 187.888 L 202.634 186.600 204.017 188.204 M238.266 187.146 C 237.819 187.322,238.417 187.455,239.803 187.487 C 241.052 187.516,242.012 187.488,241.937 187.423 C 241.554 187.095,238.905 186.895,238.266 187.146 M246.900 187.476 C 247.285 187.576,247.915 187.576,248.300 187.476 C 248.685 187.375,248.370 187.293,247.600 187.293 C 246.830 187.293,246.515 187.375,246.900 187.476 M255.546 188.688 C 256.404 188.851,256.472 189.021,256.276 190.534 C 256.070 192.136,256.078 192.151,256.482 190.922 C 257.021 189.286,256.667 188.386,255.513 188.454 L 254.600 188.509 255.546 188.688 M130.800 191.776 C 130.800 192.313,130.980 192.864,131.200 193.000 C 131.433 193.144,131.600 192.737,131.600 192.024 C 131.600 191.351,131.420 190.800,131.200 190.800 C 130.980 190.800,130.800 191.239,130.800 191.776 M211.748 195.600 C 211.748 197.910,211.814 198.855,211.895 197.700 C 211.976 196.545,211.976 194.655,211.895 193.500 C 211.814 192.345,211.748 193.290,211.748 195.600 M255.400 193.200 C 255.250 193.673,255.217 194.150,255.327 194.260 C 255.437 194.370,255.650 194.073,255.800 193.600 C 255.950 193.127,255.983 192.650,255.873 192.540 C 255.763 192.430,255.550 192.727,255.400 193.200 M274.013 194.700 C 274.024 195.687,274.789 197.200,275.277 197.200 C 275.382 197.200,275.467 196.930,275.467 196.600 C 275.467 196.270,275.258 196.000,275.003 196.000 C 274.715 196.000,274.605 195.545,274.715 194.800 C 274.820 194.080,274.713 193.600,274.445 193.600 C 274.200 193.600,274.006 194.095,274.013 194.700 M130.212 195.317 C 130.041 195.712,130.013 196.147,130.151 196.284 C 130.557 196.690,130.884 196.120,130.697 195.331 C 130.532 194.633,130.510 194.632,130.212 195.317 M252.402 198.705 C 248.125 205.258,243.890 208.951,238.245 211.049 C 236.900 211.549,236.018 211.968,236.285 211.979 C 238.815 212.088,244.852 208.376,248.347 204.561 C 250.715 201.977,255.422 195.289,255.100 194.966 C 255.014 194.880,253.800 196.563,252.402 198.705 M129.253 199.058 C 129.190 200.272,129.302 200.784,129.590 200.606 C 130.030 200.334,130.030 197.666,129.590 197.394 C 129.456 197.311,129.305 198.060,129.253 199.058 M274.800 199.226 C 274.800 200.121,274.975 201.179,275.188 201.578 C 275.405 201.982,275.593 206.486,275.614 211.744 C 275.666 224.731,276.225 224.848,276.522 211.935 C 276.570 209.809,276.518 208.127,276.405 208.198 C 276.292 208.268,276.239 206.999,276.287 205.378 C 276.336 203.758,276.200 202.324,275.986 202.192 C 275.738 202.038,275.747 201.672,276.013 201.176 C 276.299 200.642,276.299 200.400,276.014 200.400 C 275.786 200.400,275.600 199.770,275.600 199.000 C 275.600 198.230,275.420 197.600,275.200 197.600 C 274.980 197.600,274.800 198.332,274.800 199.226 M189.787 200.775 C 190.121 201.421,190.576 202.061,190.798 202.199 C 191.020 202.336,190.823 201.807,190.361 201.024 C 189.348 199.307,188.935 199.128,189.787 200.775 M212.048 200.600 C 212.041 200.820,212.285 201.900,212.591 203.000 C 212.912 204.158,213.145 204.579,213.143 204.000 C 213.139 203.055,212.075 199.750,212.048 200.600 M128.667 203.067 C 128.238 203.496,128.356 209.600,128.793 209.600 C 129.026 209.600,129.157 208.211,129.115 206.200 C 129.075 204.330,129.018 202.800,128.988 202.800 C 128.958 202.800,128.813 202.920,128.667 203.067 M193.200 204.794 C 195.412 206.868,200.367 209.600,201.916 209.600 C 202.374 209.600,203.165 209.755,203.674 209.945 C 205.143 210.494,208.400 210.883,208.400 210.510 C 208.400 210.324,208.085 210.160,207.700 210.146 C 202.957 209.975,196.803 207.614,193.200 204.582 L 191.000 202.731 193.200 204.794 M208.901 204.200 C 208.905 205.080,208.987 205.393,209.083 204.895 C 209.179 204.398,209.175 203.678,209.075 203.295 C 208.975 202.913,208.896 203.320,208.901 204.200 M212.832 207.242 C 212.814 207.596,212.185 208.691,211.433 209.676 C 210.539 210.846,210.262 211.467,210.633 211.467 C 210.945 211.467,211.200 211.309,211.200 211.116 C 211.200 210.923,211.661 210.278,212.225 209.683 C 213.385 208.458,214.320 206.955,213.674 207.354 C 213.451 207.492,213.177 207.379,213.066 207.102 C 212.934 206.776,212.852 206.825,212.832 207.242 M219.049 208.584 C 219.181 208.929,219.044 209.523,218.745 209.905 C 218.252 210.534,218.267 210.548,218.900 210.051 C 219.673 209.444,219.816 208.581,219.205 208.203 C 218.977 208.062,218.911 208.224,219.049 208.584 M128.438 213.170 C 128.470 214.947,128.635 216.400,128.805 216.400 C 129.275 216.400,129.262 210.485,128.791 210.194 C 128.520 210.027,128.400 211.046,128.438 213.170 M276.893 211.200 C 276.893 211.970,276.975 212.285,277.076 211.900 C 277.176 211.515,277.176 210.885,277.076 210.500 C 276.975 210.115,276.893 210.430,276.893 211.200 M207.375 214.668 C 206.759 215.476,206.459 216.011,206.709 215.856 C 207.221 215.540,208.953 213.200,208.675 213.200 C 208.576 213.200,207.991 213.861,207.375 214.668 M208.923 214.900 C 207.276 216.715,201.481 224.954,202.663 223.800 C 203.226 223.250,210.026 214.000,209.867 214.000 C 209.797 214.000,209.372 214.405,208.923 214.900 M236.043 216.005 C 236.968 217.102,237.793 218.000,237.875 218.000 C 238.202 218.000,235.367 214.427,234.880 214.225 C 234.595 214.107,235.118 214.908,236.043 216.005 M204.975 217.700 L 203.800 219.000 205.100 217.825 C 205.815 217.179,206.400 216.594,206.400 216.525 C 206.400 216.216,206.070 216.488,204.975 217.700 M128.481 218.030 C 128.611 219.742,129.021 219.832,129.133 218.174 C 129.183 217.418,129.037 216.800,128.806 216.800 C 128.576 216.800,128.429 217.354,128.481 218.030 M240.293 222.100 C 242.251 225.348,245.200 231.154,245.200 231.764 C 245.200 232.359,242.621 233.156,239.400 233.556 C 234.128 234.210,233.425 234.378,236.800 234.180 C 241.327 233.913,245.632 233.328,246.036 232.924 C 246.413 232.547,242.521 224.813,239.884 220.700 C 237.554 217.065,237.834 218.023,240.293 222.100 M129.200 222.424 C 129.200 223.671,129.353 224.352,129.600 224.200 C 129.820 224.064,130.000 223.153,130.000 222.176 C 130.000 221.199,129.820 220.400,129.600 220.400 C 129.380 220.400,129.200 221.311,129.200 222.424 M201.368 222.300 C 200.528 223.345,200.255 223.840,200.763 223.400 C 201.717 222.574,203.392 220.400,203.075 220.400 C 202.977 220.400,202.209 221.255,201.368 222.300 M274.800 223.976 C 274.800 225.089,274.946 226.000,275.125 226.000 C 275.614 226.000,275.698 222.508,275.217 222.210 C 274.949 222.045,274.800 222.675,274.800 223.976 M200.600 227.200 C 199.824 228.740,199.280 230.000,199.390 230.000 C 199.500 230.000,200.224 228.740,201.000 227.200 C 201.776 225.660,202.320 224.400,202.210 224.400 C 202.100 224.400,201.376 225.660,200.600 227.200 M130.324 225.423 C 129.892 226.085,130.032 229.328,130.473 228.887 C 130.681 228.679,130.795 227.719,130.726 226.754 C 130.657 225.789,130.476 225.190,130.324 225.423 M274.000 227.200 C 274.000 227.640,274.180 228.000,274.400 228.000 C 274.620 228.000,274.800 227.640,274.800 227.200 C 274.800 226.760,274.620 226.400,274.400 226.400 C 274.180 226.400,274.000 226.760,274.000 227.200 M217.141 228.300 C 217.871 229.235,218.554 230.000,218.661 230.000 C 218.973 230.000,217.303 227.781,216.526 227.164 C 216.135 226.854,216.412 227.365,217.141 228.300 M196.615 228.384 C 195.843 229.236,196.033 231.200,196.888 231.200 C 197.247 231.200,197.245 231.085,196.880 230.720 C 196.215 230.055,196.280 229.195,197.062 228.331 C 197.426 227.929,197.634 227.600,197.524 227.600 C 197.414 227.600,197.005 227.953,196.615 228.384 M273.700 228.998 C 273.144 229.629,273.019 231.841,273.521 232.151 C 273.698 232.261,273.862 231.692,273.884 230.887 C 273.907 230.083,274.122 229.359,274.363 229.279 C 274.852 229.116,274.967 228.392,274.500 228.415 C 274.335 228.424,273.975 228.686,273.700 228.998 M131.045 229.671 C 130.627 230.580,130.912 232.221,131.468 232.114 C 131.724 232.065,131.834 232.350,131.723 232.773 C 131.616 233.183,131.830 233.979,132.199 234.542 C 132.567 235.104,132.757 235.745,132.621 235.966 C 132.485 236.187,132.547 236.690,132.760 237.084 C 132.973 237.478,133.383 238.385,133.671 239.100 C 133.960 239.815,134.331 240.400,134.498 240.400 C 134.664 240.400,134.800 240.940,134.800 241.600 C 134.800 242.260,134.980 242.800,135.200 242.800 C 135.420 242.800,135.600 243.160,135.600 243.600 C 135.600 244.040,135.735 244.401,135.900 244.403 C 136.265 244.407,137.200 246.349,137.200 247.103 C 137.200 247.402,137.380 247.536,137.600 247.400 C 137.820 247.264,138.000 247.523,138.000 247.976 C 138.000 248.429,138.176 248.800,138.392 248.800 C 138.607 248.800,139.173 249.565,139.649 250.500 C 140.125 251.435,140.876 252.515,141.319 252.900 C 141.761 253.285,141.992 253.600,141.833 253.600 C 141.673 253.600,141.826 253.883,142.171 254.229 C 142.517 254.574,142.800 255.079,142.800 255.350 C 142.800 255.991,145.194 258.576,146.100 258.914 C 146.485 259.057,146.800 259.376,146.800 259.622 C 146.800 260.267,151.229 264.429,151.643 264.173 C 151.834 264.055,151.913 264.193,151.817 264.479 C 151.650 264.981,155.729 268.537,156.075 268.192 C 156.169 268.098,153.890 265.632,151.011 262.711 C 148.132 259.790,145.243 256.680,144.591 255.800 C 143.938 254.920,143.302 254.110,143.176 254.000 C 142.795 253.667,140.550 250.291,139.686 248.753 C 139.240 247.959,138.633 246.880,138.338 246.355 C 138.042 245.830,137.710 245.310,137.600 245.200 C 137.122 244.722,136.400 243.161,136.400 242.605 C 136.400 242.272,136.220 242.000,136.000 242.000 C 135.780 242.000,135.600 241.640,135.600 241.200 C 135.600 240.760,135.420 240.400,135.200 240.400 C 134.980 240.400,134.800 240.051,134.800 239.624 C 134.800 239.197,134.620 238.736,134.400 238.600 C 134.180 238.464,134.000 237.913,134.000 237.376 C 134.000 236.839,133.820 236.400,133.600 236.400 C 133.380 236.400,133.200 235.860,133.200 235.200 C 133.200 234.540,133.020 234.000,132.800 234.000 C 132.580 234.000,132.400 233.586,132.400 233.080 C 132.400 232.574,132.234 231.989,132.031 231.780 C 131.828 231.571,131.592 230.860,131.507 230.200 C 131.387 229.271,131.283 229.151,131.045 229.671 M219.200 230.210 C 219.200 231.625,225.946 234.224,230.400 234.526 C 233.240 234.718,233.283 234.709,231.200 234.357 C 224.669 233.254,224.122 233.094,221.700 231.586 C 220.325 230.730,219.200 230.111,219.200 230.210 M272.400 232.953 C 272.400 233.503,272.220 234.064,272.000 234.200 C 271.780 234.336,271.600 234.887,271.600 235.424 C 271.600 235.961,271.420 236.400,271.200 236.400 C 270.980 236.400,270.800 236.839,270.800 237.376 C 270.800 237.913,270.620 238.464,270.400 238.600 C 270.180 238.736,270.000 239.197,270.000 239.624 C 270.000 240.051,269.820 240.400,269.600 240.400 C 269.380 240.400,269.200 240.760,269.200 241.200 C 269.200 241.640,269.020 242.000,268.800 242.000 C 268.580 242.000,268.400 242.360,268.400 242.800 C 268.400 243.240,268.220 243.600,268.000 243.600 C 267.780 243.600,267.600 243.960,267.600 244.400 C 267.600 244.840,267.399 245.200,267.153 245.200 C 266.897 245.200,266.785 245.611,266.891 246.163 C 267.023 246.854,266.923 247.068,266.538 246.921 C 266.242 246.807,266.000 246.921,266.000 247.174 C 266.000 247.427,265.813 247.851,265.585 248.117 C 265.357 248.383,264.682 249.348,264.085 250.263 C 259.942 256.610,253.841 263.216,247.332 268.400 C 246.073 269.403,241.686 272.400,241.477 272.400 C 241.370 272.400,240.138 273.087,238.741 273.926 C 235.881 275.643,231.071 278.000,230.425 278.000 C 230.191 278.000,230.000 278.180,230.000 278.400 C 230.000 278.620,229.471 278.800,228.824 278.800 C 228.177 278.800,227.536 278.980,227.400 279.200 C 227.264 279.420,226.803 279.600,226.376 279.600 C 225.949 279.600,225.600 279.780,225.600 280.000 C 225.600 280.220,225.071 280.400,224.424 280.400 C 223.777 280.400,223.148 280.560,223.027 280.756 C 222.906 280.951,222.221 281.214,221.504 281.339 C 220.787 281.464,219.210 281.761,218.000 281.999 C 208.440 283.878,194.465 283.879,186.200 282.002 C 182.754 281.220,181.200 281.082,181.200 281.558 C 181.200 281.801,181.740 282.000,182.400 282.000 C 183.060 282.000,183.600 282.202,183.600 282.449 C 183.600 282.763,183.750 282.773,184.101 282.482 C 184.453 282.190,184.811 282.219,185.302 282.578 C 185.686 282.859,186.477 282.998,187.060 282.886 C 187.717 282.761,188.024 282.838,187.869 283.089 C 187.731 283.312,187.929 283.493,188.309 283.492 C 190.911 283.485,192.019 283.646,191.800 284.000 C 191.659 284.228,192.004 284.400,192.600 284.400 C 193.290 284.400,193.550 284.242,193.362 283.938 C 193.166 283.622,193.253 283.587,193.638 283.827 C 194.440 284.327,195.050 284.413,198.200 284.467 C 200.012 284.499,200.718 284.627,200.200 284.830 C 199.442 285.127,199.448 285.145,200.300 285.172 C 200.795 285.187,201.200 285.020,201.200 284.800 C 201.200 284.580,201.920 284.400,202.800 284.400 C 203.680 284.400,204.400 284.580,204.400 284.800 C 204.400 285.020,204.805 285.187,205.300 285.172 C 206.127 285.146,206.137 285.119,205.427 284.841 C 204.414 284.445,205.157 284.012,206.200 284.390 C 206.640 284.550,207.540 284.535,208.200 284.358 C 208.860 284.181,210.251 284.084,211.291 284.144 C 212.332 284.203,213.232 284.111,213.291 283.939 C 213.351 283.766,213.999 283.580,214.730 283.525 C 215.462 283.470,216.153 283.276,216.266 283.093 C 216.379 282.911,216.725 282.972,217.036 283.230 C 217.441 283.566,217.600 283.572,217.600 283.249 C 217.600 283.002,217.924 282.800,218.320 282.800 C 218.716 282.800,219.256 282.584,219.520 282.320 C 219.876 281.964,220.116 281.956,220.451 282.291 C 220.716 282.556,221.172 282.609,221.551 282.420 C 222.606 281.896,225.003 281.200,225.752 281.200 C 226.134 281.200,226.336 281.020,226.200 280.800 C 225.977 280.439,227.051 280.213,228.270 280.363 C 228.528 280.395,228.854 280.236,228.993 280.011 C 229.133 279.785,229.607 279.600,230.047 279.600 C 230.487 279.600,230.736 279.420,230.600 279.200 C 230.458 278.971,230.832 278.794,231.476 278.786 C 232.094 278.778,233.123 278.344,233.761 277.822 C 234.400 277.299,235.151 276.960,235.431 277.067 C 235.710 277.174,236.141 276.883,236.389 276.420 C 236.637 275.957,236.992 275.672,237.178 275.786 C 237.364 275.901,237.635 275.686,237.780 275.309 C 237.990 274.760,238.110 274.731,238.377 275.162 C 238.560 275.459,238.914 275.577,239.162 275.424 C 239.410 275.270,239.491 274.947,239.341 274.704 C 239.163 274.416,239.312 274.357,239.770 274.533 C 240.756 274.912,241.346 274.458,240.770 273.764 C 240.400 273.318,240.438 273.200,240.951 273.200 C 241.308 273.200,241.603 273.425,241.606 273.700 C 241.610 274.010,241.724 274.048,241.906 273.799 C 242.068 273.579,242.695 273.144,243.300 272.832 C 243.905 272.520,244.400 272.115,244.400 271.932 C 244.400 271.750,244.643 271.600,244.941 271.600 C 245.238 271.600,246.046 271.060,246.737 270.400 C 247.428 269.740,248.180 269.200,248.409 269.200 C 248.638 269.200,248.944 268.885,249.090 268.500 C 249.440 267.575,250.228 266.800,250.818 266.800 C 251.352 266.800,262.000 256.054,262.000 255.514 C 262.000 255.160,263.420 253.033,264.274 252.108 C 264.534 251.826,264.862 251.236,265.001 250.798 C 265.140 250.359,265.422 250.000,265.627 250.000 C 265.832 250.000,266.000 249.640,266.000 249.200 C 266.000 248.760,266.153 248.400,266.340 248.400 C 266.924 248.400,271.600 238.466,271.600 237.225 C 271.600 236.771,271.780 236.400,272.000 236.400 C 272.220 236.400,272.400 236.040,272.400 235.600 C 272.400 235.160,272.553 234.800,272.739 234.800 C 273.205 234.800,273.236 232.469,272.773 232.183 C 272.568 232.057,272.400 232.403,272.400 232.953 M254.600 257.506 C 254.380 257.668,253.935 258.160,253.612 258.600 C 253.178 259.191,253.309 259.146,254.112 258.430 C 255.091 257.558,255.389 257.188,255.100 257.206 C 255.045 257.209,254.820 257.344,254.600 257.506 M157.400 269.600 C 158.032 270.260,158.758 270.800,159.013 270.800 C 159.268 270.800,159.802 271.160,160.200 271.600 C 160.598 272.040,161.151 272.400,161.429 272.400 C 161.706 272.400,162.035 272.625,162.160 272.900 C 162.284 273.175,162.337 273.040,162.278 272.600 C 162.214 272.128,161.890 271.822,161.489 271.855 C 161.115 271.885,160.908 271.749,161.030 271.552 C 161.151 271.355,160.924 271.073,160.525 270.925 C 160.126 270.777,159.509 270.328,159.153 269.928 C 158.797 269.527,158.212 269.200,157.853 269.200 C 157.494 269.200,157.200 269.020,157.200 268.800 C 157.200 268.580,156.986 268.400,156.725 268.400 C 156.464 268.400,156.768 268.940,157.400 269.600 M162.800 272.629 C 162.800 273.053,164.036 274.097,164.267 273.867 C 164.392 273.741,164.217 273.360,163.876 273.019 C 163.241 272.384,162.800 272.224,162.800 272.629 M166.571 275.409 C 167.393 276.030,167.852 275.932,167.416 275.227 C 167.271 274.992,166.848 274.806,166.476 274.813 C 165.883 274.824,165.894 274.897,166.571 275.409 M168.375 276.354 C 168.624 276.819,169.171 277.200,169.590 277.200 C 170.010 277.200,170.464 277.380,170.600 277.600 C 170.889 278.067,172.000 278.142,172.000 277.694 C 172.000 277.526,171.235 277.036,170.300 276.605 C 169.365 276.174,168.448 275.751,168.261 275.664 C 168.075 275.578,168.126 275.888,168.375 276.354 M172.400 278.171 C 172.400 278.499,174.930 279.600,175.685 279.600 C 176.104 279.600,176.348 279.760,176.228 279.955 C 176.107 280.151,176.516 280.385,177.137 280.476 C 177.883 280.586,178.267 280.465,178.267 280.121 C 178.267 279.834,177.934 279.600,177.528 279.600 C 177.122 279.600,176.387 279.392,175.895 279.138 C 174.018 278.167,173.593 278.000,173.005 278.000 C 172.672 278.000,172.400 278.077,172.400 278.171 M178.800 280.713 C 178.800 280.885,179.250 281.063,179.800 281.108 C 180.350 281.154,180.800 281.013,180.800 280.796 C 180.800 280.578,180.350 280.400,179.800 280.400 C 179.250 280.400,178.800 280.541,178.800 280.713 " stroke="none" fill="#8f9190" fill-rule="evenodd"></path><path id="path4" d="M195.000 138.817 C 191.710 139.080,189.998 139.352,185.400 140.343 C 167.704 144.157,149.701 157.167,139.984 173.162 C 137.909 176.576,135.495 181.515,133.513 186.400 C 133.289 186.950,132.948 187.713,132.753 188.095 C 132.559 188.477,132.400 189.242,132.400 189.795 C 132.400 190.348,132.220 190.800,132.000 190.800 C 131.780 190.800,131.600 191.509,131.600 192.376 C 131.600 193.243,131.420 194.064,131.200 194.200 C 130.980 194.336,130.800 195.146,130.800 196.000 C 130.800 196.854,130.620 197.664,130.400 197.800 C 130.180 197.936,130.000 198.937,130.000 200.024 C 130.000 201.140,129.817 202.000,129.579 202.000 C 129.296 202.000,129.180 204.675,129.224 210.165 C 129.260 214.656,129.169 218.526,129.022 218.765 C 128.870 219.011,129.038 219.200,129.409 219.200 C 129.967 219.200,130.046 219.613,129.933 221.950 C 129.832 224.028,129.922 224.653,130.300 224.507 C 130.663 224.367,130.800 224.927,130.800 226.557 C 130.800 227.791,130.980 228.800,131.200 228.800 C 131.420 228.800,131.600 229.329,131.600 229.976 C 131.600 230.623,131.780 231.264,132.000 231.400 C 132.220 231.536,132.400 232.087,132.400 232.624 C 132.400 233.161,132.580 233.600,132.800 233.600 C 133.020 233.600,133.200 233.962,133.200 234.405 C 133.200 234.848,133.359 235.523,133.553 235.905 C 133.748 236.287,134.084 237.050,134.301 237.600 C 136.379 242.876,142.695 253.442,146.016 257.200 C 148.958 260.529,156.985 268.400,157.438 268.400 C 157.710 268.400,157.993 268.552,158.067 268.737 C 158.477 269.774,170.956 277.200,172.289 277.200 C 172.570 277.200,172.800 277.380,172.800 277.600 C 172.800 277.820,173.162 278.000,173.605 278.000 C 174.048 278.000,174.723 278.166,175.105 278.368 C 179.545 280.720,189.649 282.780,198.479 283.132 C 228.256 284.321,255.279 268.721,267.999 243.000 C 268.761 241.460,269.485 240.110,269.609 240.000 C 269.732 239.890,270.083 238.990,270.389 238.000 C 270.694 237.010,271.058 236.020,271.198 235.800 C 271.528 235.279,272.991 230.505,273.833 227.200 C 276.869 215.289,275.567 196.366,270.986 185.800 C 270.700 185.140,270.146 183.796,269.755 182.814 C 266.017 173.419,257.232 161.922,248.347 154.798 C 240.096 148.181,226.939 141.547,219.400 140.204 C 210.006 138.529,203.347 138.150,195.000 138.817 M215.200 139.934 C 216.630 140.161,218.250 140.460,218.800 140.598 C 219.350 140.736,220.610 141.035,221.600 141.262 C 223.433 141.682,223.926 141.853,226.400 142.926 C 227.170 143.259,229.060 144.032,230.600 144.643 C 232.140 145.253,234.263 146.258,235.318 146.876 C 236.372 147.494,237.330 148.000,237.446 148.000 C 237.561 148.000,238.441 148.540,239.400 149.200 C 240.359 149.860,241.259 150.400,241.400 150.400 C 242.407 150.400,248.341 155.169,253.228 159.904 C 261.320 167.746,267.871 177.954,271.128 187.800 C 275.076 199.731,276.165 214.684,273.795 224.400 C 273.661 224.950,273.370 226.210,273.150 227.200 C 272.409 230.529,271.628 233.272,270.813 235.400 C 270.645 235.840,270.332 236.650,270.118 237.200 C 266.754 245.839,259.162 257.015,252.819 262.664 C 246.065 268.679,243.191 270.720,236.610 274.175 C 224.802 280.374,215.924 282.542,202.200 282.578 C 193.728 282.600,192.469 282.469,184.400 280.723 C 167.001 276.958,149.238 263.740,139.829 247.554 C 137.378 243.338,133.600 235.134,133.600 234.028 C 133.600 233.599,133.441 233.149,133.246 233.029 C 133.051 232.908,132.796 232.313,132.679 231.705 C 132.562 231.097,132.264 229.880,132.018 229.000 C 130.063 222.013,129.206 206.946,130.414 200.800 C 130.652 199.590,131.004 197.700,131.196 196.600 C 131.701 193.707,132.018 192.307,132.375 191.400 C 132.548 190.960,132.906 189.880,133.171 189.000 C 133.656 187.388,133.791 187.036,134.959 184.300 C 135.312 183.475,135.887 182.125,136.237 181.300 C 138.225 176.623,141.207 171.441,143.575 168.547 C 144.139 167.857,145.050 166.693,145.600 165.958 C 151.574 157.982,170.724 144.000,175.674 144.000 C 176.047 144.000,176.464 143.820,176.600 143.600 C 176.736 143.380,177.276 143.200,177.800 143.200 C 178.324 143.200,178.864 143.020,179.000 142.800 C 179.136 142.580,179.599 142.400,180.029 142.400 C 180.459 142.400,181.123 142.238,181.505 142.039 C 181.887 141.840,183.010 141.468,184.000 141.212 C 184.990 140.956,186.353 140.578,187.028 140.373 C 187.704 140.168,188.964 139.997,189.828 139.994 C 190.693 139.991,191.670 139.807,192.000 139.586 C 192.762 139.076,211.575 139.358,215.200 139.934 M199.400 140.648 C 193.156 141.150,194.583 141.835,202.500 142.138 C 219.979 142.805,234.345 148.048,248.235 158.827 C 251.418 161.298,252.373 161.260,249.726 158.769 C 247.040 156.239,241.937 152.000,241.579 152.000 C 241.416 152.000,240.097 151.280,238.648 150.400 C 237.200 149.520,235.904 148.800,235.769 148.800 C 235.634 148.800,235.017 148.440,234.399 147.999 C 228.042 143.473,210.392 139.766,199.400 140.648 M212.600 141.611 C 217.192 142.226,219.212 142.676,223.000 143.928 C 229.838 146.187,234.712 148.363,233.694 148.702 C 233.465 148.778,232.495 148.485,231.539 148.050 C 228.686 146.752,222.062 144.389,220.270 144.030 C 219.352 143.845,217.250 143.419,215.600 143.082 C 212.108 142.368,206.974 141.623,204.400 141.456 C 203.410 141.392,204.220 141.316,206.200 141.287 C 208.180 141.259,211.060 141.404,212.600 141.611 M178.197 144.995 C 175.159 145.812,171.084 147.414,169.351 148.472 C 168.498 148.992,167.260 149.678,166.600 149.996 C 156.741 154.743,143.444 168.742,138.510 179.569 C 134.833 187.638,134.400 188.700,134.400 189.649 C 134.400 191.234,135.210 190.257,137.011 186.500 C 141.318 177.515,143.602 173.695,148.195 167.800 C 150.887 164.345,156.858 158.666,160.400 156.191 C 161.610 155.346,163.410 154.086,164.400 153.392 C 166.546 151.887,172.374 149.032,177.513 146.967 C 179.555 146.147,181.163 145.290,181.088 145.063 C 180.875 144.424,180.361 144.412,178.197 144.995 M175.400 147.244 C 169.068 150.003,166.599 151.293,163.089 153.676 C 161.060 155.054,159.310 156.284,159.200 156.410 C 159.090 156.536,158.370 157.076,157.600 157.610 C 155.534 159.043,148.795 165.866,146.943 168.400 C 143.747 172.772,142.276 174.978,141.095 177.169 C 139.752 179.660,139.200 180.399,139.200 179.705 C 139.200 178.581,145.498 168.559,147.399 166.658 C 147.729 166.328,148.000 165.893,148.000 165.692 C 148.000 165.377,152.393 161.196,156.720 157.393 C 158.617 155.725,162.398 152.932,163.584 152.323 C 164.143 152.036,165.804 151.129,167.276 150.307 C 172.220 147.547,172.594 147.365,174.400 146.833 C 175.390 146.541,176.380 146.249,176.600 146.183 C 178.359 145.656,177.692 146.245,175.400 147.244 M237.918 150.704 C 238.863 151.250,239.549 151.785,239.442 151.892 C 239.238 152.095,234.400 149.279,234.400 148.957 C 234.400 148.749,235.384 149.238,237.918 150.704 M241.300 152.557 C 242.316 153.328,242.158 153.598,241.003 153.062 C 240.455 152.808,240.005 152.465,240.003 152.300 C 239.998 151.856,240.509 151.957,241.300 152.557 M177.597 163.189 C 178.038 163.469,178.076 163.684,177.744 164.016 C 177.411 164.349,177.074 164.328,176.446 163.936 C 175.765 163.511,175.459 163.504,174.899 163.904 C 174.514 164.178,173.840 164.563,173.400 164.760 C 172.706 165.070,169.702 167.237,166.400 169.808 C 158.208 176.188,151.477 187.097,148.428 198.938 C 140.310 230.460,163.135 262.769,196.364 266.793 C 224.327 270.179,250.247 251.498,257.406 222.800 C 258.188 219.663,258.666 207.140,258.116 204.188 C 257.668 201.781,258.174 198.969,259.731 195.231 C 261.233 191.621,261.174 191.200,259.169 191.200 L 257.537 191.200 257.669 189.720 C 257.809 188.134,257.812 188.136,254.336 187.421 C 253.751 187.301,252.448 186.347,251.441 185.301 C 249.541 183.329,249.593 183.321,249.437 185.600 C 249.404 186.093,248.652 186.198,245.214 186.190 C 240.319 186.177,240.517 186.393,240.425 181.000 C 240.395 179.240,240.137 176.592,239.851 175.115 C 239.523 173.420,239.471 172.289,239.710 172.050 C 240.175 171.585,238.912 169.726,237.900 169.383 C 237.515 169.253,237.200 168.908,237.200 168.617 C 237.200 168.327,236.855 167.664,236.434 167.144 L 235.667 166.200 232.734 167.773 C 215.079 177.237,211.939 180.950,210.722 193.800 C 210.346 197.778,210.174 198.624,209.991 197.400 C 209.330 192.982,205.619 187.480,201.200 184.366 C 198.004 182.115,188.251 178.064,187.094 178.509 C 185.953 178.946,185.599 191.071,186.612 195.016 C 188.656 202.974,196.805 211.172,203.699 212.206 C 207.269 212.741,207.540 213.769,204.862 216.622 C 204.278 217.244,203.260 218.517,202.600 219.452 C 201.940 220.386,200.095 222.858,198.500 224.944 C 194.773 229.818,194.615 231.436,197.791 232.234 C 198.444 232.397,199.264 232.885,199.614 233.317 C 200.567 234.494,201.657 233.913,203.413 231.293 C 205.108 228.764,206.948 226.196,209.576 222.695 C 211.542 220.074,211.804 220.111,212.991 223.174 C 217.206 234.050,229.088 239.987,242.610 237.975 C 246.878 237.341,247.464 237.684,245.762 239.821 C 245.123 240.623,244.294 241.745,243.920 242.315 C 243.142 243.499,236.385 250.400,236.003 250.400 C 235.864 250.400,235.398 250.715,234.966 251.100 C 226.788 258.393,210.991 263.050,198.200 261.938 C 171.702 259.635,150.725 235.434,152.139 208.800 C 152.857 195.283,157.931 183.904,167.391 174.600 C 171.325 170.730,173.284 169.056,175.200 167.928 C 176.190 167.345,177.399 166.491,177.888 166.030 C 178.376 165.569,178.916 165.237,179.088 165.293 C 179.259 165.348,179.845 165.080,180.389 164.697 C 181.281 164.068,181.301 163.999,180.589 163.987 C 180.155 163.980,179.451 163.710,179.024 163.387 C 178.596 163.064,177.966 162.803,177.624 162.806 C 177.078 162.811,177.074 162.859,177.597 163.189 M236.353 168.700 C 236.921 170.917,237.600 178.514,237.600 182.664 L 237.600 186.291 239.456 186.546 C 240.477 186.686,242.592 186.808,244.156 186.818 C 247.857 186.840,256.520 187.987,257.058 188.525 C 257.641 189.108,255.533 196.186,254.261 197.914 C 247.313 207.358,244.268 209.994,238.034 211.962 C 235.349 212.809,234.557 213.556,235.637 214.223 C 237.095 215.124,247.398 232.751,246.800 233.322 C 246.690 233.427,245.880 233.600,245.000 233.706 C 244.120 233.813,240.826 234.223,237.681 234.618 C 223.072 236.453,213.357 229.675,211.425 216.300 C 211.116 214.158,210.199 213.739,209.239 215.300 C 208.935 215.795,207.480 217.820,206.006 219.800 C 204.532 221.780,202.647 224.660,201.817 226.200 C 199.214 231.029,198.794 231.600,197.847 231.600 C 195.165 231.600,195.450 229.515,198.700 225.364 C 203.041 219.819,205.087 217.158,206.976 214.600 C 207.950 213.280,209.366 211.562,210.121 210.782 C 213.006 207.803,213.134 207.057,211.800 201.000 C 208.785 187.309,214.138 178.301,230.435 169.642 C 235.828 166.776,235.858 166.771,236.353 168.700 M260.013 170.814 C 260.025 171.391,260.693 172.777,263.905 178.885 C 285.824 220.567,261.386 269.493,214.400 277.996 C 207.976 279.159,207.923 279.173,208.113 279.715 C 208.737 281.502,226.230 277.895,232.097 274.768 C 232.480 274.564,234.550 273.481,236.697 272.361 C 238.844 271.241,241.860 269.408,243.400 268.288 C 244.940 267.168,247.010 265.704,248.000 265.034 C 258.072 258.219,269.718 239.683,271.896 227.000 C 272.277 224.781,271.560 226.287,270.821 229.257 C 268.282 239.461,261.914 250.828,254.339 258.677 C 247.607 265.652,236.196 273.140,228.534 275.610 C 227.030 276.095,224.781 276.825,223.535 277.233 C 219.087 278.689,212.495 279.773,214.000 278.800 C 214.330 278.587,215.037 278.409,215.572 278.406 C 216.106 278.403,217.096 278.230,217.772 278.022 C 218.447 277.815,220.350 277.263,222.000 276.797 C 223.650 276.330,225.360 275.798,225.800 275.615 C 226.240 275.431,227.230 275.064,228.000 274.800 C 230.549 273.925,230.978 273.746,233.800 272.377 C 239.519 269.605,247.455 264.174,251.000 260.606 C 252.743 258.853,256.382 254.900,258.048 252.949 C 261.000 249.496,264.940 242.777,267.400 237.000 C 269.048 233.131,269.061 233.092,270.403 228.100 C 273.974 214.819,272.474 195.902,266.914 184.086 C 266.574 183.363,266.401 182.666,266.530 182.537 C 266.738 182.328,268.236 185.272,269.004 187.400 C 269.163 187.840,269.368 188.001,269.460 187.758 C 269.686 187.162,266.469 180.294,264.591 177.362 C 263.758 176.063,262.634 174.190,262.091 173.200 C 260.854 170.941,259.994 169.954,260.013 170.814 M190.802 180.154 C 200.219 183.613,203.810 186.102,206.962 191.357 C 209.690 195.903,210.008 198.688,208.946 208.737 L 208.678 211.273 207.439 211.095 C 192.694 208.976,185.933 200.900,186.596 186.200 C 186.955 178.250,186.682 178.641,190.802 180.154 M269.764 189.200 C 269.863 189.750,270.149 190.920,270.399 191.800 C 271.117 194.328,271.610 196.427,272.040 198.786 C 272.498 201.299,272.801 201.852,272.797 200.167 C 272.795 198.919,270.757 190.863,270.024 189.200 L 269.583 188.200 269.764 189.200 M273.095 208.600 C 273.273 214.723,273.108 217.405,272.133 224.200 C 271.712 227.140,272.385 225.385,272.989 221.970 C 273.622 218.391,273.769 205.241,273.201 203.000 C 273.034 202.340,272.986 204.860,273.095 208.600 M211.600 204.000 C 212.874 205.274,212.556 207.041,210.680 209.100 C 209.701 210.175,209.071 210.269,209.341 209.300 C 209.448 208.915,209.654 207.385,209.800 205.900 C 210.082 203.015,210.341 202.741,211.600 204.000 M255.122 209.632 C 255.448 217.568,250.922 234.441,248.480 234.395 C 248.326 234.392,247.663 233.267,247.008 231.895 C 245.422 228.576,241.904 222.363,239.964 219.454 C 238.161 216.751,238.055 216.176,239.300 215.877 C 244.729 214.575,249.328 211.989,252.266 208.586 C 254.644 205.831,254.971 205.951,255.122 209.632 M213.213 208.936 C 211.184 211.624,211.197 211.764,213.436 211.457 C 218.242 210.798,219.934 209.021,217.074 207.636 C 214.836 206.553,215.073 206.473,213.213 208.936 M131.471 208.029 C 130.682 210.977,131.441 218.365,133.584 228.600 C 134.734 234.094,138.591 243.434,141.059 246.700 C 142.741 248.926,143.984 248.225,142.371 245.959 C 139.755 242.285,135.267 230.785,134.035 224.600 C 133.033 219.567,132.812 217.890,132.559 213.400 C 132.260 208.091,131.913 206.377,131.471 208.029 M216.000 209.400 C 217.373 209.929,216.771 210.273,214.900 210.030 C 214.625 209.994,214.400 210.153,214.400 210.382 C 214.400 210.612,214.040 210.800,213.600 210.800 C 212.627 210.800,212.593 210.492,213.462 209.531 C 214.225 208.688,214.160 208.692,216.000 209.400 M210.800 216.138 C 210.800 216.654,210.418 217.419,209.952 217.838 C 209.485 218.257,208.137 219.860,206.956 221.400 C 204.111 225.110,202.808 226.542,202.530 226.263 C 202.189 225.923,203.619 223.665,207.005 219.193 C 210.126 215.072,210.800 214.529,210.800 216.138 M137.600 237.447 C 137.600 237.777,137.420 237.936,137.200 237.800 C 136.980 237.664,136.800 237.283,136.800 236.953 C 136.800 236.623,136.980 236.464,137.200 236.600 C 137.420 236.736,137.600 237.117,137.600 237.447 M139.390 241.580 C 140.076 242.908,140.133 243.201,139.700 243.197 C 139.394 243.194,138.400 241.300,138.400 240.720 C 138.400 240.083,138.792 240.424,139.390 241.580 M211.600 279.600 C 210.170 280.058,209.600 280.058,209.600 279.600 C 209.600 279.380,210.275 279.218,211.100 279.240 C 212.439 279.275,212.492 279.314,211.600 279.600 " stroke="none" fill="#c2c4c2" fill-rule="evenodd"></path></g></svg>